/* XPM */
static char *c10cae5c1e8f41e9bf5a33dfb7abc47c90yKwdc3xpT9AwAd[] = {
/* columns rows colors chars-per-pixel */
"64 64 148 2 ",
"   c None",
".  c #E62F15",
"X  c #E7221A",
"o  c #EB2D1C",
"O  c #E73515",
"+  c #E83B13",
"@  c #EE371D",
"#  c #EE3C1C",
"$  c #F13E1E",
"%  c #ED510F",
"&  c #EB4C13",
"*  c #EF461A",
"=  c #F2441D",
"-  c #F44C1D",
";  c #EE5611",
":  c #F15716",
">  c #F35D16",
",  c #F6501F",
"<  c #F8541F",
"1  c #F65D1C",
"2  c #F95E1E",
"3  c #FF7606",
"4  c #FF7907",
"5  c #F0710A",
"6  c #FE7C09",
"7  c #F56616",
"8  c #F56B14",
"9  c #F66219",
"0  c #FA631C",
"q  c #F76B19",
"w  c #F47511",
"e  c #F97217",
"r  c #F77915",
"t  c #FA7A16",
"y  c #F47619",
"u  c #FA7418",
"i  c #F47A1B",
"p  c #FC7D18",
"a  c #FA6620",
"s  c #FA6F21",
"d  c #FB7922",
"f  c #FF8E05",
"g  c #F7860B",
"h  c #FF830C",
"j  c #FF8A0D",
"k  c #FF9606",
"l  c #FF900E",
"z  c #FF9C0A",
"x  c #F98412",
"c  c #F68F13",
"v  c #FE8C12",
"b  c #FC8218",
"n  c #FB8918",
"m  c #F69114",
"M  c #FE9415",
"N  c #FF9B16",
"B  c #FD941A",
"V  c #FE9C1A",
"C  c #FFA30D",
"Z  c #FFA315",
"A  c #FFAC12",
"S  c #FFA31D",
"D  c #FFAB1D",
"F  c #FFB316",
"G  c #FFB51B",
"H  c #FFBC1B",
"J  c #FD8F24",
"K  c #FCA321",
"L  c #FAA824",
"P  c #FDA824",
"I  c #FDAD25",
"U  c #FFAB22",
"Y  c #FEB520",
"T  c #FEB620",
"R  c #FFB622",
"E  c #FFB024",
"W  c #FFB125",
"Q  c #FFB225",
"!  c #FFB427",
"~  c #FFB627",
"^  c #FFB425",
"/  c #FFBE26",
"(  c #FEB228",
")  c #FFB628",
"_  c #FFB728",
"`  c #FFB629",
"'  c #FFB628",
"]  c #FFB828",
"[  c #FFB829",
"{  c #FFB929",
"}  c #FFBA28",
"|  c #FFBA29",
" . c #FFBA2A",
".. c #FFBB2A",
"X. c #FEBB2B",
"o. c #FFBC2A",
"O. c #FEBC2B",
"+. c #FFBC2B",
"@. c #FFBE2B",
"#. c #FFBF2B",
"$. c #FFBF2C",
"%. c #FFBC2A",
"&. c #FFC11D",
"*. c #FFC21D",
"=. c #FFC11F",
"-. c #FFC41F",
";. c #FFC120",
":. c #FFC221",
">. c #FFC323",
",. c #FFC520",
"<. c #FFC621",
"1. c #FFC723",
"2. c #FFC327",
"3. c #FFC724",
"4. c #FFC821",
"5. c #FFC921",
"6. c #FFCC23",
"7. c #FFCD23",
"8. c #FFC824",
"9. c #FFCB24",
"0. c #FFC926",
"q. c #FFC827",
"w. c #FFCA26",
"e. c #FFCC25",
"r. c #FFCF25",
"t. c #FFCC26",
"y. c #FFCE26",
"u. c #FFCF26",
"i. c #FFCE27",
"p. c #FFCF27",
"a. c #FFC02A",
"s. c #FFC12D",
"d. c #FFC22D",
"f. c #FFC12B",
"g. c #FFC828",
"h. c #FFD025",
"j. c #FFD327",
"k. c #FFD629",
"l. c #FFD729",
"z. c #FFD92A",
"x. c #FFDA2A",
"c. c #FFDA2B",
"v. c #FFDC2C",
"b. c #FFDE2D",
"n. c #FFDF2D",
"m. c #FFC630",
"M. c #FFCC33",
"N. c #FFD034",
/* pixels */
"                                                                                                                                ",
"                                                                                                                                ",
"                                                                                                                                ",
"                                                                                                                                ",
"                                                                                                                                ",
"                                                                                                                                ",
"                                                                                                                                ",
"                                                                                                                                ",
"                                                                                                                                ",
"                                                                                                                                ",
"                                                                                                                                ",
"                                                                                                                                ",
"                                                                                                                                ",
"                                                                                                                                ",
"                                                                                                                                ",
"                                                                                                                                ",
"                                                        s.s.a.L L $.s.s.                                                        ",
"                                                  o.$.$.o.s...S K $.$.$.$.$.$.                                                  ",
"                                              ..........o.) E P U I ) X.o.o.o...o.                                              ",
"                                            ) ......E S M h h h h h j v S E ) ..) ..                                            ",
"                                          K L ~ E V j j V G :.w.w.:.G N j j V ( ~ I K                                           ",
"                                        P V V U M j D t.b.n.n.b.b.b.b.b.h.D j v U V V I                                         ",
"                                      I I I S v N 5.v.z.z.z.z.z.z.z.z.z.z.z.5.N v S L I I                                       ",
"                                    U U U U v Z t.z.k.k.k.k.k.k.k.k.k.k.k.k.z.t.N M S U I I                                     ",
"                                    U P S N N t.h.k.h.k.j.j.j.t.t.j.j.j.j.k.h.k.t.N N S P S                                     ",
"                                  S S S V N :.h.h.h.h.t.h.t.t.V V t.h.h.t.h.h.t.h.:.N V S S S                                   ",
"                                  S S S N D 7.7.t.5.7.7.t.7.R p b T t.5.7.t.w.w.g.g.D N S S V                                   ",
"                                  V V N V =.5.5.5.5.5.<.5.<.B p p B 5.5.2.a.o.$.$.$...V V S V                                   ",
"                                V V V V D =.-.-.-.-.=.=.H D p p p p K ) ) ......$.....S V V V V                                 ",
"                                N N V V G =.=.=.=.S M n b t t t e 0 2 0 s d J E R R ) I V B N N                                 ",
"                                v v B S G H H H G w e e y e e e 2 < < < < , 1 P E E E I S N v M                                 ",
"                                n c M D G H H H H m 8 e e e e 1 , , , , , - i I I I I U P c v n                                 ",
"                                M V B D F H F H F F c 8 8 q 9 , - - , - = y U U I D U D U B V M                                 ",
"                                v j M I F F F F F F F m 8 7 - $ = = = = y S S S S S S P I v v j                                 ",
"                                j h v U G A F A F F F Z 8 : * $ $ $ $ = B S V S V V S U I j j j                                 ",
"                                h h j S ~ A A A A A A M > - @ @ @ @ @ @ p V V V V V V E S h h h                                 ",
"                                  h 6 N ..A Z A A A A g ; # o O O o o o q N B N N N V ) N h h                                   ",
"                                  6 4 h ) G C C C C Z 5 & + ; x x ; . X : M M v M v U E 6 4 6                                   ",
"                                  4 4 3 N a.A C z C C g 5 h v v v v r % 8 v v v v V o.V 3 4 4                                   ",
"                                    3 3 4 I / C z z C z z l x j j v j v j v v j M ..E 6 3 3                                     ",
"                                    3 3 3 j ../ z z z z k j h j j x j h h h h v R o.h 3 3 3                                     ",
"                                      3 3 w x $.g.Z k k k f h h 6 6 h 6 6 h N o.s.n w 3 3                                       ",
"                                        6 V v j ..M.G Z k f 6 4 4 4 4 6 v I m...h v N 4                                         ",
"                                          6 3 3 6 V m.M.a.G N v v N S ..N.m.V 6 3 4 h                                           ",
"                                            3 3 3 3 6 V ) m.N.M.N.N.m.) V 6 3 3 3 3                                             ",
"                                              3 3 3 3 3 3 4 j x x j 6 3 3 3 3 3 3                                               ",
"                                                  4 3 3 3 3 3 M n 3 3 3 3 3 3                                                   ",
"                                                        3 3 3 x j 3 3 3                                                         ",
"                                                                                                                                ",
"                                                                                                                                ",
"                                                                                                                                ",
"                                                                                                                                ",
"                                                                                                                                ",
"                                                                                                                                ",
"                                                                                                                                ",
"                                                                                                                                ",
"                                                                                                                                ",
"                                                                                                                                ",
"                                                                                                                                ",
"                                                                                                                                ",
"                                                                                                                                ",
"                                                                                                                                ",
"                                                                                                                                ",
"                                                                                                                                "
};
