/* XPM */
static char *result[] = {
/* columns rows colors chars-per-pixel */
"64 64 78 1 ",
"  c #BF6B00",
". c #C36E00",
"X c #C96D0B",
"o c #C47300",
"O c #CA7A01",
"+ c #C8730A",
"@ c #D17A00",
"# c #D18502",
"$ c #DB8E00",
"% c #D38709",
"& c #DC9102",
"* c #CF8813",
"= c #DC8B10",
"- c #D0891C",
"; c #D89312",
": c #E28700",
"> c #E38D00",
", c #E88E00",
"< c #E49300",
"1 c #EA9300",
"2 c #E49E00",
"3 c #EA9B00",
"4 c #F19F00",
"5 c #E3A200",
"6 c #EBA400",
"7 c #E5AB00",
"8 c #EBAC00",
"9 c #F1A300",
"0 c #F1AC00",
"q c #EDB200",
"w c #E6B800",
"e c #EDBA00",
"r c #F1B300",
"t c #F2BB00",
"y c #D39926",
"u c #DA9A20",
"i c #DC9E2C",
"p c #DBA427",
"a c #D8A33E",
"s c #DDB53D",
"d c #E1BF2E",
"f c #E6C100",
"g c #EDC400",
"h c #F3C300",
"j c #F9C500",
"k c #F4CC00",
"l c #FACA00",
"z c #ECD300",
"x c #F5D500",
"c c #FAD400",
"v c #F6DB00",
"b c #F9DC00",
"n c #F5DD0A",
"m c #F4DD1F",
"M c #F5E300",
"N c #FAE200",
"B c #F7EA00",
"V c #FAEC00",
"C c #F6F000",
"Z c #FAF300",
"A c #FAFA00",
"S c #F5F00B",
"D c #FAFA0D",
"F c #E9D337",
"G c #E8D138",
"H c #F4DD34",
"J c #F3EC26",
"K c #F9FA2B",
"L c #E4C342",
"P c #F3DC49",
"I c #E9D453",
"U c #F1E642",
"Y c #F2EA44",
"T c #F9FA4B",
"R c #EFE25B",
"E c #F3ED64",
"W c #F7F666",
"Q c None",
/* pixels */
"QQQQQQQQQQQQQQQQQQQQQQQQQQQQQQQQQQQQQQQQQQQQQQQQQQQQQQQQQQQQQQQQ",
"QQQQQQQQQQQQQQQQQQQQQQQQQQQQQQQQQQQQQQQQQQQQQQQQQQQQQQQQQQQQQQQQ",
"QQQQQQQQQQQQQQQQQQQQQQQQQQQQQQQQQQQQQQQQQQQQQQQQQQQQQQQQQQQQQQQQ",
"QQQQQQQQQQQQQQQQQQQQQQQQQQQQQQQQQQQQQQQQQQQQQQQQQQQQQQQQQQQQQQQQ",
"QQQQQQQQQQQQQQQQQQQQQQQQQQQQQQQQQQQQQQQQQQQQQQQQQQQQQQQQQQQQQQQQ",
"QQQQQQQQQQQQQQQQQQQQQQQQQQQQQQQQQQQQQQQQQQQQQQQQQQQQQQQQQQQQQQQQ",
"QQQQQQQQQQQQQQQQQQQQQQQQQQQQQQQQQQQQQQQQQQQQQQQQQQQQQQQQQQQQQQQQ",
"QQQQQQQQQQQQQQQQQQQQQQQQQQQQQQQQQQQQQQQQQQQQQQQQQQQQQQQQQQQQQQQQ",
"QQQQQQQQQQQQQQQQQQQQQQQQQQQQQQQQQQQQQQQQQQQQQQQQQQQQQQQQQQQQQQQQ",
"QQQQQQQQQQQQQQQQQQQQQQQQQQQQQQQQQQQQQQQQQQQQQQQQQQQQQQQQQQQQQQQQ",
"QQQQQQQQQQQQQQQQQQQQQQQQQQQQQQQQQQQQQQQQQQQQQQQQQQQQQQQQQQQQQQQQ",
"QQQQQQQQQQQQQQQQQQQQQQQQQQQQQQQQQQQQQQQQQQQQQQQQQQQQQQQQQQQQQQQQ",
"QQQQQQQQQQQQQQQQQQQQQQQQQQQQQQQQQQQQQQQQQQQQQQQQQQQQQQQQQQQQQQQQ",
"QQQQQQQQQQQQQQQQQQQQQQQQQQQQQQQQQQQQQQQQQQQQQQQQQQQQQQQQQQQQQQQQ",
"QQQQQQQQQQQQQQQQQQQQQQQQQQcbbvbvNMVZZQQQQQQQQQQQQQQQQQQQQQQQQQQQ",
"QQQQQQQQQQQQQQQQQQQQQQQQclkhttttthkxMZZQQQQQQQQQQQQQQQQQQQQQQQQQ",
"QQQQQQQQQQQQQQQQQQQQQQcltr909000rrrttkMCAQQQQQQQQQQQQQQQQQQQQQQQ",
"QQQQQQQQQQQQQQQQQQQQQclr949990000qrrtetxBAQQQQQQQQQQQQQQQQQQQQQQ",
"QQQQQQQQQQQQQQQQQQQQbk09944990000rrrqttthMAAQQQQQQQQQQQQQQQQQQQQ",
"QQQQQQQQQQQQQQQQQQQNkr009999999ek00rrrrtehvAQQQQQQQQQQQQQQQQQQQQ",
"QQQQQQQQQQQQQQQQQQVvt0009999947ZZh00rrrttthMAQQQQQQQQQQQQQQQQQQQ",
"QQQQQQQQQQQQQQQQQZBhrrr0009945MAAZt00rqrtttgBAQQQQQQQQQQQQQQQQQQ",
"QQQQQQQQQQQQQQQQQZxetrrr00092zAAAAVr0rrrrtttxCZQQQQQQQQQQQQQQQQQ",
"QQQQQQQQQQQQQQQQZBhtttrr0006wAAAAAAMr00rrrqttNAQQQQQQQQQQQQQQQQQ",
"QQQQQQQQQQQQQQQQVxhghetrqrrwZAAZAAAZctr00rrttkZQQQQQQQQQQQQQQQQQ",
"QQQQQQQQQQQQQQQNvtthhttttkbVVVVVVVVVVNbjtrrrttMZQQQQQQQQQQQQQQQQ",
"QQQQQQQQQQQQQQQbxrtehgkcbNNNNNNNbNNNNNNNbcjtq8kZQQQQQQQQQQQQQQQQ",
"QQQQQQQQQQQQQQQct0r55cbbbcbccbcbbccbcbccbcc726eVQQQQQQQQQQQQQQQQ",
"QQQQQQQQQQQQQQQlr002.qlllllllcllllllllllllq$367NQQQQQQQQQQQQQQQQ",
"QQQQQQQQQQQQQQQj090r$ohlllljlljllllllllllh<2268vVQQQQQQQQQQQQQQQ",
"QQQQQQQQQQQQQQQj99900O#lllllllllllljlllll513366vVQQQQQQQQQQQQQQQ",
"QQQQQQQQQQQQQQQj049908o2lllljljllllljlll8>33336xNQQQQQQQQQQQQQQQ",
"QQQQQQQQQQQQQQQl0449902.tlljllljlllllllj<113326cQQQQQQQQQQQQQQQQ",
"QQQQQQQQQQQQQQQl0449996@#clclclclclclcct1113138cQQQQQQQQQQQQQQQQ",
"QQQQQQQQQQQQQQQlr441111>@cNbNbbNNbNNNbNl1111138cQQQQQQQQQQQQQQQQ",
"QQQQQQQQQQQQQQQlt111111>OBVZVZZVVZZVZZZc331113tbQQQQQQQQQQQQQQQQ",
"QQQQQQQQQQQQQQQQl411,11>OSDDDDDDDDDDDDDn331113jcQQQQQQQQQQQQQQQQ",
"QQQQQQQQQQQQQQQQl0,1111,+JKKKKKKKKKKKKKm331110kQQQQQQQQQQQQQQQQQ",
"QQQQQQQQQQQQQQQQlj4,111,+HTTTTYFGGYTTTTH63313tlQQQQQQQQQQQQQQQQQ",
"QQQQQQQQQQQQQQQQQlr1,11<+RWRLp;&$O-ysIEP6332tlQQQQQQQQQQQQQQQQQQ",
"QQQQQQQQQQQQQQQQQQj011,1Xai=>1368776&%-u623rcQQQQQQQQQQQQQQQQQQQ",
"QQQQQQQQQQQQQQQQQQlj6111::,111366687q86566qxbQQQQQQQQQQQQQQQQQQQ",
"QQQQQQQQQQQQQQQQQQQlj91,1111113336888q776ebbQQQQQQQQQQQQQQQQQQQQ",
"QQQQQQQQQQQQQQQQQQQQllr1,111111132667q8qkVMQQQQQQQQQQQQQQQQQQQQQ",
"QQQQQQQQQQQQQQQQQQQQQQlt94,1111133666qhMCVQQQQQQQQQQQQQQQQQQQQQQ",
"QQQQQQQQQQQQQQQQQQQQQQQllt0331111368gvZAQQQQQQQQQQQQQQQQQQQQQQQQ",
"QQQQQQQQQQQQQQQQQQQQQQQQQlljttrrttlcbMQQQQQQQQQQQQQQQQQQQQQQQQQQ",
"QQQQQQQQQQQQQQQQQQQQQQQQQQQQQllljllQQQQQQQQQQQQQQQQQQQQQQQQQQQQQ",
"QQQQQQQQQQQQQQQQQQQQQQQQQQQQQQQQQQQQQQQQQQQQQQQQQQQQQQQQQQQQQQQQ",
"QQQQQQQQQQQQQQQQQQQQQQQQQQQQQQQQQQQQQQQQQQQQQQQQQQQQQQQQQQQQQQQQ",
"QQQQQQQQQQQQQQQQQQQQQQQQQQQQQQQQQQQQQQQQQQQQQQQQQQQQQQQQQQQQQQQQ",
"QQQQQQQQQQQQQQQQQQQQQQQQQQQQQQQQQQQQQQQQQQQQQQQQQQQQQQQQQQQQQQQQ",
"QQQQQQQQQQQQQQQQQQQQQQQQQQQQQQQQQQQQQQQQQQQQQQQQQQQQQQQQQQQQQQQQ",
"QQQQQQQQQQQQQQQQQQQQQQQQQQQQQQQQQQQQQQQQQQQQQQQQQQQQQQQQQQQQQQQQ",
"QQQQQQQQQQQQQQQQQQQQQQQQQQQQQQQQQQQQQQQQQQQQQQQQQQQQQQQQQQQQQQQQ",
"QQQQQQQQQQQQQQQQQQQQQQQQQQQQQQQQQQQQQQQQQQQQQQQQQQQQQQQQQQQQQQQQ",
"QQQQQQQQQQQQQQQQQQQQQQQQQQQQQQQQQQQQQQQQQQQQQQQQQQQQQQQQQQQQQQQQ",
"QQQQQQQQQQQQQQQQQQQQQQQQQQQQQQQQQQQQQQQQQQQQQQQQQQQQQQQQQQQQQQQQ",
"QQQQQQQQQQQQQQQQQQQQQQQQQQQQQQQQQQQQQQQQQQQQQQQQQQQQQQQQQQQQQQQQ",
"QQQQQQQQQQQQQQQQQQQQQQQQQQQQQQQQQQQQQQQQQQQQQQQQQQQQQQQQQQQQQQQQ",
"QQQQQQQQQQQQQQQQQQQQQQQQQQQQQQQQQQQQQQQQQQQQQQQQQQQQQQQQQQQQQQQQ",
"QQQQQQQQQQQQQQQQQQQQQQQQQQQQQQQQQQQQQQQQQQQQQQQQQQQQQQQQQQQQQQQQ",
"QQQQQQQQQQQQQQQQQQQQQQQQQQQQQQQQQQQQQQQQQQQQQQQQQQQQQQQQQQQQQQQQ",
"QQQQQQQQQQQQQQQQQQQQQQQQQQQQQQQQQQQQQQQQQQQQQQQQQQQQQQQQQQQQQQQQ"
};
