/* XPM */
static char *result[] = {
/* columns rows colors chars-per-pixel */
"64 64 82 1 ",
"  c #CE7600",
". c #CE7C00",
"X c #D67D00",
"o c #DA7C02",
"O c #D58500",
"+ c #DF8101",
"@ c #DE8F00",
"# c #D68D08",
"$ c #D88C09",
"% c #DA9100",
"& c #DE950D",
"* c #D99216",
"= c #D4921A",
"- c #E48D05",
"; c #E98E00",
": c #E39600",
"> c #EE9500",
", c #E49C00",
"< c #ED9B00",
"1 c #F09700",
"2 c #F19C00",
"3 c #E0971E",
"4 c #D4AA00",
"5 c #DAAF00",
"6 c #DEB200",
"7 c #E2A200",
"8 c #EDA300",
"9 c #EDAB00",
"0 c #EEA908",
"q c #F5A400",
"w c #F6AC00",
"e c #F8AE00",
"r c #E2B500",
"t c #EEB300",
"y c #E6B900",
"u c #EDBD00",
"i c #F5B400",
"p c #F8B100",
"a c #F5BB00",
"s c #F9BC00",
"d c #D48C27",
"f c #DDAE37",
"g c #E0A727",
"h c #E0B72A",
"j c #EFC100",
"k c #F5C300",
"l c #FAC500",
"z c #F4CB00",
"x c #FECC00",
"c c #EFD400",
"v c #EDD70C",
"b c #F3D200",
"n c #FDD200",
"m c #F5DA00",
"M c #FDDB00",
"N c #F7E400",
"B c #FDE400",
"V c #F7EA00",
"C c #FCEC00",
"Z c #FBED0F",
"A c #FCF400",
"S c #FDFC00",
"D c #FFFE0F",
"F c #FEFE11",
"G c #EAD123",
"H c #E7C530",
"J c #E8CB38",
"K c #EDD83D",
"L c #FAED28",
"P c #FEFE2E",
"I c #FEFE30",
"U c #E4C34C",
"Y c #EBCE4A",
"T c #EBD555",
"R c #F4E642",
"E c #FAEE42",
"W c #F9F44B",
"Q c #FDFD4E",
"! c #F5E255",
"~ c #FEFF52",
"^ c #F8F365",
"/ c None",
/* pixels */
"////////////////////////////////////////////////////////////////",
"////////////////////////////////////////////////////////////////",
"////////////////////////////////////////////////////////////////",
"////////////////////////////////////////////////////////////////",
"////////////////////////////////////////////////////////////////",
"////////////////////////////////////////////////////////////////",
"////////////////////////////////////////////////////////////////",
"////////////////////////////////////////////////////////////////",
"////////////////////////////////////////////////////////////////",
"////////////////////////////////////////////////////////////////",
"////////////////////////////////////////////////////////////////",
"////////////////////////////////////////////////////////////////",
"////////////////////////////////////////////////////////////////",
"////////////////////////////////////////////////////////////////",
"//////////////////////////xxxnMMBBBCAA//////////////////////////",
"////////////////////////xxxxnnlssklzmVAS////////////////////////",
"///////////////////////xxxnxsweepiiaakmAS///////////////////////",
"//////////////////////xxxMlpqqqwepiiaaazVS//////////////////////",
"/////////////////////xxnMniqqqqwewpiiaauzVS/////////////////////",
"////////////////////xxxMMiewqqqw9kaiiaaaazVS////////////////////",
"////////////////////xxMClppwwqqqtANiiiiauabA////////////////////",
"///////////////////xxnCMisipwwq<mSSnipiaaajNS///////////////////",
"///////////////////xxBAlaaipewquSSSSkpiiaaazA///////////////////",
"//////////////////xxxCNllaaipw9VSSSSNiiiiiauNA//////////////////",
"//////////////////xxnCnkkkasiicSSSSSSnapiaiazA//////////////////",
"//////////////////xxnMkklasaxBCAAACACCNnaauikV//////////////////",
"//////////////////xxnnaallnMBBBBBBBBBBBBMnlitmA/////////////////",
"/////////////////xxxnlpt5nMMMMMMMMnMMMMMMMl,8cV/////////////////",
"/////////////////xxlnsei tnnnxnnxnnxxxnxnx7,8kC/////////////////",
"/////////////////xxlxpwp,.lxxxxxxxxxxxxxxi:<,aN/////////////////",
"/////////////////xxlleqepO,xxxxxxxxnxxxxl,<,,iN/////////////////",
"/////////////////lllxeqqe9.axxxxxxxxxxxxt>2,8iN/////////////////",
"/////////////////lkkxeqqwp@%xxxxxxxxxxxx<>><,uN/////////////////",
"/////////////////lkkxpqqqq< lnnnnnnnnMnx<>><>iM/////////////////",
"//////////////////kklsq11><XzBBBCBBBBBBM2>>><am/////////////////",
"//////////////////kuls1>1>1OcAAAAAASSAAV8>:><k//////////////////",
"//////////////////jjjl2>>1>ovDDDFFFFFFFZ9>>>9z//////////////////",
"//////////////////uuule>>>>oGPPPPIIIIIILq<>:wx//////////////////",
"///////////////////uyls<>>>oJQ~~RHhKW~~E0<><a///////////////////",
"///////////////////yyylq>>1oU^Yg&,%$=fT!0,<ux///////////////////",
"////////////////////rrjl2>>-d*->8w9t9,$*879z////////////////////",
"////////////////////r6rki<>>;;11<8999ut988zM////////////////////",
"/////////////////////65rli1>1>>1<8899tt99lN/////////////////////",
"//////////////////////54yli<11;1><<q9t9umV//////////////////////",
"///////////////////////44rlaq<>>>><889jNA///////////////////////",
"////////////////////////446kliqq1<29ibVA////////////////////////",
"//////////////////////////45rklllsllnN//////////////////////////",
"////////////////////////////////xx//////////////////////////////",
"////////////////////////////////////////////////////////////////",
"////////////////////////////////////////////////////////////////",
"////////////////////////////////////////////////////////////////",
"////////////////////////////////////////////////////////////////",
"////////////////////////////////////////////////////////////////",
"////////////////////////////////////////////////////////////////",
"////////////////////////////////////////////////////////////////",
"////////////////////////////////////////////////////////////////",
"////////////////////////////////////////////////////////////////",
"////////////////////////////////////////////////////////////////",
"////////////////////////////////////////////////////////////////",
"////////////////////////////////////////////////////////////////",
"////////////////////////////////////////////////////////////////",
"////////////////////////////////////////////////////////////////",
"////////////////////////////////////////////////////////////////",
"////////////////////////////////////////////////////////////////"
};
