/* XPM */
static char *_48ca608d6a24cbd9455f5c045a2987cv3KIzqDTQxAYZdIn[] = {
/* columns rows colors chars-per-pixel */
"64 64 106 2 ",
"   c None",
".  c #DB9309",
"X  c #DC8D18",
"o  c #D89515",
"O  c #E88E03",
"+  c #E49702",
"@  c #EC9401",
"#  c #E59D01",
"$  c #EB9B00",
"%  c #F19C00",
"&  c #D4AA00",
"*  c #D9AE00",
"=  c #DDB100",
"-  c #EDA300",
";  c #EDAC00",
":  c #EEAE0C",
">  c #F4A400",
",  c #F5AC00",
"<  c #E2B500",
"1  c #EDB200",
"2  c #E6B900",
"3  c #ECBC00",
"4  c #F4B300",
"5  c #F8B400",
"6  c #F3BB00",
"7  c #F8BC00",
"8  c #EDAE14",
"9  c #E5B430",
"0  c #EFC000",
"q  c #F4C300",
"w  c #F9C400",
"e  c #F5CC00",
"r  c #FECC00",
"t  c #F4D600",
"y  c #FAD000",
"u  c #FAD200",
"i  c #F9D000",
"p  c #FDD000",
"a  c #FDD100",
"s  c #FED000",
"d  c #FFD000",
"f  c #FFD100",
"g  c #F9D600",
"h  c #FBD600",
"j  c #FCD400",
"k  c #FED400",
"l  c #FFD400",
"z  c #FED500",
"x  c #FFD500",
"c  c #F9D000",
"v  c #F7D900",
"b  c #F6DA00",
"n  c #F6DD00",
"m  c #FAD800",
"M  c #FBD800",
"N  c #FCD800",
"B  c #FDD800",
"V  c #FEDA00",
"C  c #FFDB00",
"Z  c #FBDE00",
"A  c #FCDF00",
"S  c #FFDE00",
"D  c #F3DB0C",
"F  c #F6E300",
"G  c #F7E300",
"H  c #F7E200",
"J  c #FCE100",
"K  c #FDE100",
"L  c #FCE500",
"P  c #FFE400",
"I  c #FEE500",
"U  c #FFE500",
"Y  c #FFE600",
"T  c #F7EA00",
"R  c #FAE900",
"E  c #F8EA00",
"W  c #FCE800",
"Q  c #F8EF00",
"!  c #FAEE00",
"~  c #F9F100",
"^  c #FBF200",
"/  c #FDF001",
"(  c #FEF000",
")  c #FFF000",
"_  c #FDF400",
"`  c #FEF600",
"'  c #FFF700",
"]  c #FEF601",
"[  c #F8F000",
"{  c #FFFC00",
"}  c #FEFE00",
"|  c yellow",
" . c #FDF711",
".. c #FFFF10",
"X. c #FEFE11",
"o. c #F2DA24",
"O. c #E8C733",
"+. c #F1D83B",
"@. c #FCF72D",
"#. c #FFFF2F",
"$. c #FEFF31",
"%. c #E7C748",
"&. c #EBCA4A",
"*. c #F2E343",
"=. c #FBF84C",
"-. c #FCF84C",
/* pixels */
"                                                                                                                                ",
"                                                                                                                                ",
"                                                                                                                                ",
"                                                                                                                                ",
"                                                                                                                                ",
"                                                                                                                                ",
"                                                                                                                                ",
"                                                                                                                                ",
"                                                                                                                                ",
"                                                                                                                                ",
"                                                                                                                                ",
"                                                                                                                                ",
"                                                                                                                                ",
"                                                                                                                                ",
"                                                          r r r d K L !                                                         ",
"                                                        r r r r d w q t ^                                                       ",
"                                                      r r r r r 5 , 4 3 b                                                       ",
"                                                      r d r d w > , 4 4 q T                                                     ",
"                                                    r r r r x 5 > , 4 5 6 t                                                     ",
"                                                    r r r d x 4 , , 6 4 4 q !                                                   ",
"                                                  r r r r x r 4 > , x 7 4 0 F                                                   ",
"                                                  r r r r N e 4 , , ( w 5 4 b                                                   ",
"                                                  r r r r A w 4 , q { g 4 3 e                                                   ",
"                                                  r r r r A w 7 , b { W 5 4 q E                                                 ",
"                                                  r r r r Z w 6 4 E { ` q 4 6 F                                                 ",
"                                                r r r r w u q 6 N ( ( ( K 7 6 n                                                 ",
"                                                r r r w e w q u L L L L L N 6 t                                                 ",
"                                                r r r w w 7 1 N N A N N N g 1 0                                                 ",
"                                                r r w q q 7 # w d d d d d w - q                                                 ",
"                                                r r w q q 5 # 2 r r r r r 7 # 0                                                 ",
"                                                r w e 3 3 , > - d r r r r 4 # 6                                                 ",
"                                                r w q 3 3 5 > - r r r r r ; $ 6                                                 ",
"                                                w w 3 3 3 , > + w r r r r $ $ 6                                                 ",
"                                                q q 3 2 3 5 > + 6 x x x d - $ 4                                                 ",
"                                                q 0 3 < < 4 % @ e W L L K > @ 4                                                 ",
"                                                0 3 2 = < , @ @ t ' ` ` ( ; @ 3                                                 ",
"                                                3 3 2 = = 4 @ O D ...... .; @ 6                                                 ",
"                                                  2 = = & 1 @ @ o.$.$.#.@.: $ 6                                                 ",
"                                                  < = * & 1 $ O +.=.O.*.=.: -                                                   ",
"                                                  < = & & < > @ &.9 . o %.8 ,                                                   ",
"                                                  = * & & = , O X $ ; ; . # 6                                                   ",
"                                                    & & & * 4 @ @ @ - ; ; ; e                                                   ",
"                                                    & & & & 3 - % @ - ; ; 3                                                     ",
"                                                      & & & < , @ @ % - 1 b                                                     ",
"                                                      & & & & 6 > @ $ # w [                                                     ",
"                                                        & & & 2 7 % @ 4 F                                                       ",
"                                                          & & & 3 w w u                                                         ",
"                                                                                                                                ",
"                                                                                                                                ",
"                                                                                                                                ",
"                                                                                                                                ",
"                                                                                                                                ",
"                                                                                                                                ",
"                                                                                                                                ",
"                                                                                                                                ",
"                                                                                                                                ",
"                                                                                                                                ",
"                                                                                                                                ",
"                                                                                                                                ",
"                                                                                                                                ",
"                                                                                                                                ",
"                                                                                                                                ",
"                                                                                                                                ",
"                                                                                                                                "
};
