/* XPM */
static char *_17c166a6c7f4138856e8e7271746ce18WKoivF7xNoXzQFX[] = {
/* columns rows colors chars-per-pixel */
"64 64 26 1 ",
"  c None",
". c #D4AA00",
"X c #D5AB00",
"o c #D8AD00",
"O c #D8AE00",
"+ c #D9AE00",
"@ c #DCB100",
"# c #DDB100",
"$ c #E1B400",
"% c #E5B700",
"& c #E5B800",
"* c #E9BB00",
"= c #EABB00",
"- c #EDBE00",
"; c #EEBF00",
": c #F2C200",
"> c #F5C400",
", c #F6C500",
"< c #F6C600",
"1 c #F9C800",
"2 c #FAC900",
"3 c #FBC900",
"4 c #FCCA00",
"5 c #FCCB00",
"6 c #FDCB00",
"7 c #FECB00",
/* pixels */
"                                                                ",
"                                                                ",
"                                                                ",
"                                                                ",
"                                                                ",
"                                                                ",
"                                                                ",
"                                                                ",
"                                                                ",
"                                                                ",
"                                                                ",
"                                                                ",
"                                                                ",
"                              7557                              ",
"                              7575                              ",
"                              5757                              ",
"                              7575                              ",
"                              57577                             ",
"                              75755                             ",
"                              77577                             ",
"                              75755                             ",
"                              57577                             ",
"                              75575                             ",
"                              57777                             ",
"                              75575                             ",
"                              77757                             ",
"                              77575                             ",
"                              55755                             ",
"                              57757                             ",
"                              75575                             ",
"                              77757                             ",
"                              77577                             ",
"                              75755                             ",
"                              57577                             ",
"                              77777                             ",
"                              155<1                             ",
"                              <<><<                             ",
"                              :::::                             ",
"                              -:---                             ",
"                              *=***                             ",
"                              &&&&%                             ",
"                              $$$$$                             ",
"                              #####                             ",
"                              ooooo                             ",
"                              XXoX                              ",
"                              ...X                              ",
"                              ....                              ",
"                              .X..                              ",
"                                                                ",
"                                                                ",
"                                                                ",
"                                                                ",
"                                                                ",
"                                                                ",
"                                                                ",
"                                                                ",
"                                                                ",
"                                                                ",
"                                                                ",
"                                                                ",
"                                                                ",
"                                                                ",
"                                                                ",
"                                                                "
};
