/* XPM */
static char *_10c0022914a4fe7f4aeaa0d6920269d5wfGbPTQMRUECdZO[] = {
/* columns rows colors chars-per-pixel */
"64 64 112 2 ",
"   c None",
".  c #DC9208",
"X  c #D89012",
"o  c #D89B1F",
"O  c #E78F05",
"+  c #E98E00",
"@  c #E79602",
"#  c #EB9401",
"$  c #E59C00",
"%  c #EC9A00",
"&  c #E59E0A",
"*  c #F19B00",
"=  c #D4AA00",
"-  c #D9AE00",
";  c #DCB100",
":  c #E5A000",
">  c #EBA300",
",  c #ECAB00",
"<  c #EEAF0C",
"1  c #F4A600",
"2  c #F5AC00",
"3  c #F8AF00",
"4  c #E2B500",
"5  c #EDB400",
"6  c #E6B800",
"7  c #ECBC00",
"8  c #F4B400",
"9  c #F8B300",
"0  c #F4BB00",
"q  c #FABE00",
"w  c #EDB016",
"e  c #DC9726",
"r  c #F4C300",
"t  c #F9C600",
"y  c #F4CB00",
"u  c #FECC00",
"i  c #F3D200",
"p  c #FFD000",
"a  c #FFD200",
"s  c #FED300",
"d  c #FDD000",
"f  c #FBD500",
"g  c #FAD700",
"h  c #FED400",
"j  c #FFD400",
"k  c gold",
"l  c #FBD200",
"z  c #F5D900",
"x  c #F6DB00",
"c  c #F5DF00",
"v  c #F5DA00",
"b  c #FAD800",
"n  c #FBDA00",
"m  c #FCD800",
"M  c #FED900",
"N  c #FDDB00",
"B  c #FEDA00",
"V  c #FFDA00",
"C  c #FFDB00",
"Z  c #F8DF00",
"A  c #FADE00",
"S  c #FBDE00",
"D  c #FDDC00",
"F  c #FFDC00",
"G  c #F6E000",
"H  c #F6E500",
"J  c #F6E700",
"K  c #FCE000",
"L  c #FDE000",
"P  c #FDE300",
"I  c #FEE300",
"U  c #FEE400",
"Y  c #FFE400",
"T  c #FFE500",
"R  c #F9E400",
"E  c #F6EB00",
"W  c #F6E900",
"Q  c #FBE800",
"!  c #F8EA00",
"~  c #FCEA00",
"^  c #F8EC00",
"/  c #FBEC00",
"(  c #FDEF00",
")  c #FEEF00",
"_  c #FFEF00",
"`  c #F4E00A",
"'  c #F8F400",
"]  c #FCF500",
"[  c #FDF500",
"{  c #FEF400",
"}  c #FEF500",
"|  c #FFF500",
" . c #FFFB00",
".. c #FEFF00",
"X. c yellow",
"o. c #FDF80E",
"O. c #FEFE0D",
"+. c #FFFF0D",
"@. c #FEFE0E",
"#. c #F3DE21",
"$. c #E8C039",
"%. c #EED939",
"&. c #F2DC39",
"*. c #FCF82A",
"=. c #FFFF2B",
"-. c #FEFE2C",
";. c #FEFF2C",
":. c #EED54E",
">. c #EED851",
",. c #F7EF45",
"<. c #FCF948",
"1. c #FDFC49",
/* pixels */
"                                                                                                                                ",
"                                                                                                                                ",
"                                                                                                                                ",
"                                                                                                                                ",
"                                                                                                                                ",
"                                                                                                                                ",
"                                                                                                                                ",
"                                                                                                                                ",
"                                                                                                                                ",
"                                                                                                                                ",
"                                                                                                                                ",
"                                                                                                                                ",
"                                                                                                                                ",
"                                                          R F u u u                                                             ",
"                                                        ~ A B d u u u u                                                         ",
"                                                      ^ y 0 q u u u u u                                                         ",
"                                                    ' i 5 8 3 3 u u u u u                                                       ",
"                                                    J 0 8 9 1 1 q j u u u u                                                     ",
"                                                    y 7 8 9 2 1 9 j d u d u                                                     ",
"                                                  E r 8 8 r 1 1 9 l d u u u                                                     ",
"                                                  x 0 8 0 x 2 1 2 y B u u u u                                                   ",
"                                                  i 7 9 t { 8 2 9 t B u u u u                                                   ",
"                                                  y 8 9 n ..y 2 9 r P u u u u                                                   ",
"                                                J r 8 8 ~ ..z 2 0 r A u u u u                                                   ",
"                                                G 0 5 t {  .~ 0 0 r n u u u u u                                                 ",
"                                                z 8 0 P ) { ) n q r y t u u u u                                                 ",
"                                                i 0 n U U U U U j r t u t u u u                                                 ",
"                                                r , n B B F F F B 5 0 t t u u u                                                 ",
"                                                7 : u l u d d d u $ 8 r r u u u                                                 ",
"                                                7 $ 0 u u u u u 8 $ 9 r 7 t u u                                                 ",
"                                                0 $ 8 u u u u d , > 9 0 7 r t u                                                 ",
"                                                5 % 2 u u u u u $ , 2 7 7 r r u                                                 ",
"                                                5 # > u u u u t $ 1 2 7 7 7 r u                                                 ",
"                                                5 # > d j j d r @ 1 2 7 6 7 r r                                                 ",
"                                                8 # 1 K U U U y @ * 2 6 6 6 7 r                                                 ",
"                                                7 # , ) | | | z # # 2 4 ; 6 6 r                                                 ",
"                                                8 # , o.O.O.O.` # # , ; ; 6 6 r                                                 ",
"                                                0 % < *.;.;.;.#.# # 8 - ; ; 6 6                                                 ",
"                                                  % < <.,.&.1.&.O # 5 - - ; 6                                                   ",
"                                                  , w >.e . $.:.# * 6 = - ; ;                                                   ",
"                                                  8 & X : , @ e O 1 ; = = - ;                                                   ",
"                                                  y > , 5 , * + # 9 ; = = = -                                                   ",
"                                                  z 5 , , % * # * 7 - = = =                                                     ",
"                                                    y 5 , % # # 2 4 = = = =                                                     ",
"                                                    E 7 % % # * 0 - = = =                                                       ",
"                                                      x , # * 8 7 = = = =                                                       ",
"                                                      R t 8 0 r - = = =                                                         ",
"                                                          u t ; = =                                                             ",
"                                                                                                                                ",
"                                                                                                                                ",
"                                                                                                                                ",
"                                                                                                                                ",
"                                                                                                                                ",
"                                                                                                                                ",
"                                                                                                                                ",
"                                                                                                                                ",
"                                                                                                                                ",
"                                                                                                                                ",
"                                                                                                                                ",
"                                                                                                                                ",
"                                                                                                                                ",
"                                                                                                                                ",
"                                                                                                                                ",
"                                                                                                                                "
};
