/* XPM */
static char *_d2066a289bb4a15b036f52f5244c801oW2HWSArTdnDIeBN[] = {
/* columns rows colors chars-per-pixel */
"64 64 159 2 ",
"   c None",
".  c #CC7A00",
"X  c #D37D03",
"o  c #D87A05",
"O  c #D28200",
"+  c #D98E02",
"@  c #DE9406",
"#  c #D48D15",
"$  c #DD9A16",
"%  c #E68A01",
"&  c #E18E0C",
"*  c #E69400",
"=  c #EE9500",
"-  c #E69B00",
";  c #EC9B00",
":  c #F19B00",
">  c #D5AB00",
",  c #D9AE00",
"<  c #DEB200",
"1  c #E6A200",
"2  c #EDA301",
"3  c #EDAC00",
"4  c #F5A400",
"5  c #F6AB00",
"6  c #F8AC00",
"7  c #E3B600",
"8  c #EEB200",
"9  c #E7B900",
"0  c #ECBD00",
"q  c #F5B400",
"w  c #F8B300",
"e  c #F4BB00",
"r  c #F9BD00",
"t  c #DC9D26",
"y  c #D9A32B",
"u  c #DAA33D",
"i  c #E1A22C",
"p  c #E3B733",
"a  c #EFC200",
"s  c #F4C300",
"d  c #FBC600",
"f  c #F4CA00",
"g  c #FBCD00",
"h  c #F9CC00",
"j  c #FDCD00",
"k  c #FECC00",
"l  c #FFCC00",
"z  c #FFCD00",
"x  c #FDCF00",
"c  c #FFCE00",
"v  c #FFCF00",
"b  c #FCCA00",
"n  c #F3D100",
"m  c #F1D500",
"M  c #F5D700",
"N  c #F7D400",
"B  c #FBD100",
"V  c #F9D200",
"C  c #FED000",
"Z  c #FFD000",
"A  c #FFD100",
"S  c #FED200",
"D  c #FFD200",
"F  c #FED300",
"G  c #FBD400",
"H  c #FDD500",
"J  c #FFD500",
"K  c gold",
"L  c #FAD500",
"P  c #F5DA00",
"I  c #F1D900",
"U  c #F9DB00",
"Y  c #FBDA00",
"T  c #FFD900",
"R  c #FEDA00",
"E  c #FEDB00",
"W  c #FFDB00",
"Q  c #F8DC00",
"!  c #F8DE00",
"~  c #FFDC00",
"^  c #FDDF00",
"/  c #FFDE00",
"(  c #F9DB00",
")  c #F5E100",
"_  c #F6E100",
"`  c #F6E200",
"'  c #FBE100",
"]  c #F8E200",
"[  c #FBE200",
"{  c #FDE100",
"}  c #FFE100",
"|  c #FCE300",
" . c #FFE300",
".. c #F8E500",
"X. c #FAE500",
"o. c #FDE400",
"O. c #FEE500",
"+. c #FFE500",
"@. c #FFE600",
"#. c #FDE200",
"$. c #F7E800",
"%. c #F7EA00",
"&. c #F7EE00",
"*. c #F8E900",
"=. c #F9EA00",
"-. c #FFE800",
";. c #FDEA00",
":. c #F9EF00",
">. c #FCED00",
",. c #FEEF00",
"<. c #F9EC00",
"1. c #F4E709",
"2. c #FBEC0B",
"3. c #F9F000",
"4. c #F8F100",
"5. c #F9F100",
"6. c #F9F200",
"7. c #F9F300",
"8. c #FEF000",
"9. c #FFF000",
"0. c #FFF100",
"q. c #FDF200",
"w. c #FFF200",
"e. c #F9F400",
"r. c #F9F500",
"t. c #F9F600",
"y. c #F9F700",
"u. c #FCF700",
"i. c #FEF300",
"p. c #F9F800",
"a. c #F9F900",
"s. c #FEF800",
"d. c #FEFB00",
"f. c #FFFB00",
"g. c #FEFC00",
"h. c #FFFC00",
"j. c #FEFD00",
"k. c #FEFE00",
"l. c #FFFE00",
"z. c #FEFF00",
"x. c yellow",
"c. c #FEFD0C",
"v. c #EAD134",
"b. c #EED836",
"n. c #EFDE3B",
"m. c #F1E322",
"M. c #FAEC23",
"N. c #FEFE29",
"B. c #FAEC3C",
"V. c #E7C948",
"C. c #EDD953",
"Z. c #F0DF52",
"A. c #F6EE42",
"S. c #F9F343",
"D. c #FEFF47",
"F. c #FEFE4A",
"G. c #F9EA54",
"H. c #F4EB5F",
"J. c #FBFA65",
/* pixels */
"                                                                                                                                ",
"                                                                                                                                ",
"                                                                                                                                ",
"                                                                                                                                ",
"                                                                                                                                ",
"                                                                                                                                ",
"                                                                                                                                ",
"                                                                                                                                ",
"                                                                                                                                ",
"                                                                                                                                ",
"                                                                                                                                ",
"                                                                                                                                ",
"                                                                                                                                ",
"                                                                                                                                ",
"                                                    6.6.%...] ^ ^ R H z z z                                                     ",
"                                                p.6.$.M h d e e r d h B z z z b                                                 ",
"                                              p.4.I s e q q q q 6 6 6 w d z z z z                                               ",
"                                            p.%.f e e e e q q 5 5 6 4 4 6 s R B b z                                             ",
"                                          p.%.f e e e e q q 6 6 6 5 4 4 4 6 b ^ B z z                                           ",
"                                        p.%.f 0 e e q q q r f 4 4 4 4 4 6 6 w B  .B z b                                         ",
"                                        t.m e 0 e q q q q O.p.8 4 4 4 4 6 6 q s O. .b z                                         ",
"                                      p._ e e e e e q q h g.g._ 2 4 6 6 q q q e B 0.H z z                                       ",
"                                      4.f e e q q q q e 0.g.g.g.a 2 6 5 q w e r s >.O.z z                                       ",
"                                    r.! 0 0 q e q 6 q ..g.g.g.g.4.3 5 q q q r r s ! 0.B b z                                     ",
"                                    6.f 8 e q q q q B s.s.g.s.g.g.m q q q r e s d h =.H z z                                     ",
"                                    %.s e 8 e e h ] 0.0.0.0.0.0.0.0.O.h s e s d s r R R b z                                     ",
"                                  6.P 8 q s B ^ O.O.O.O.O.O.O.O.O.O.O.O.^ h d s s e b R z z b                                   ",
"                                  :.f 1 - s ^ R R R R R R R R ^ R ^ R R ^ ^ ^ 3 3 q r H b z b                                   ",
"                                  =.a 1 - 1 z B B B B B z B z B z B B B B B d . 3 6 q z b b z                                   ",
"                                  ..8 1 ; * e z z b z b z z z z z z z z b z + + w 6 6 d b b b                                   ",
"                                  ] 8 ; ; ; - b z z z z z z b b z z b z z 8 . 6 q 4 4 d b d b                                   ",
"                                  ! 8 ; ; ; * e z b b z b z z z z b z b b X - q 6 4 4 d b d b                                   ",
"                                  Q 8 - - - = - d z z z z z z z z b z z 1 O q 4 4 4 4 d d d b                                   ",
"                                  Y 8 - = : = : b H B B B B B B B B B z X - 4 4 4 4 6 d s s s                                   ",
"                                  Y e = = = = : L O. . . . . . . . . .M X ; : : : 4 w b f s s                                   ",
"                                    s - = * = 2 O.i.0.i.i.0.0.0.0.0.0._ O = = = = = w d 0 s                                     ",
"                                    f ; = * = 2 2.c.c.c.c.c.c.c.c.c.c.1.X = = = = = r s 0 s                                     ",
"                                    g 3 = * ; 2 M.N.N.N.N.N.N.N.N.N.N.m.X = = = = 4 d s 0 0                                     ",
"                                      e ; ; ; 3 A.F.F.F.A.v.b.S.D.D.F.n.o : = = = w d 9 9 0                                     ",
"                                      h 3 ; ; 2 G.H.V.y # + @ $ p Z.J.C.o = = = ; d 0 9 9                                       ",
"                                      G s 2 2 2 t # + 1 3 8 3 2 * & i u o = = = q s 9 7 9                                       ",
"                                        Y a 2 1 1 3 8 8 3 3 4 2 : = = % % = = 4 b 9 < 7                                         ",
"                                          ! 0 3 3 8 8 5 3 2 2 = = = = = = = 4 d 0 , <                                           ",
"                                            1.a 3 8 8 3 2 2 : = = = = = = 4 s a , , ,                                           ",
"                                              :.I 0 3 2 4 ; = = = = = = 5 d s > > >                                             ",
"                                                t._ a 3 2 ; = = = : 5 r b 0 > >                                                 ",
"                                                  =.! M s q q q r s d s < > >                                                   ",
"                                                        h b b z d s 7 >                                                         ",
"                                                                                                                                ",
"                                                                                                                                ",
"                                                                                                                                ",
"                                                                                                                                ",
"                                                                                                                                ",
"                                                                                                                                ",
"                                                                                                                                ",
"                                                                                                                                ",
"                                                                                                                                ",
"                                                                                                                                ",
"                                                                                                                                ",
"                                                                                                                                ",
"                                                                                                                                ",
"                                                                                                                                ",
"                                                                                                                                ",
"                                                                                                                                "
};
