/* XPM */
static char *_71043697e8743cda247c2670a7f98a1L7GKZRyFgmXmPJTw[] = {
/* columns rows colors chars-per-pixel */
"64 64 199 2 ",
"   c None",
".  c #3A270D",
"X  c #46350C",
"o  c #4B3A0D",
"O  c #48360C",
"+  c #533E0B",
"@  c #4C3B12",
"#  c #4F3E1C",
"$  c #513F13",
"%  c #5A450E",
"&  c #544214",
"*  c #54421A",
"=  c #584619",
"-  c #5C4915",
";  c #634D0F",
":  c #6B530F",
">  c #775D0F",
",  c #604D16",
"<  c #614E18",
"1  c #6D591D",
"2  c #6A5516",
"3  c #745D13",
"4  c #725D1B",
"5  c #7A600E",
"6  c #7D671B",
"7  c #7D681C",
"8  c #796216",
"9  c #594825",
"0  c #5C4C35",
"q  c #685522",
"w  c #6D5A24",
"e  c #69572A",
"r  c #6E5B2C",
"t  c #725D2A",
"y  c #735E27",
"u  c #685739",
"i  c #715E35",
"p  c #725F3C",
"a  c #7C672A",
"s  c #746132",
"d  c #7A673C",
"f  c #7B6739",
"g  c #6D5D49",
"h  c #6F604B",
"j  c #756241",
"k  c #7B6444",
"l  c #7D6944",
"z  c #7D6B4A",
"x  c #7F7041",
"c  c #746B5B",
"v  c #776B55",
"b  c #756F62",
"n  c #777469",
"m  c #866F16",
"M  c #836C1B",
"N  c #806716",
"B  c #8C7315",
"V  c #8A731C",
"C  c #86701A",
"Z  c #937A16",
"A  c #957C1C",
"S  c #997E1D",
"D  c #947916",
"F  c #836D2C",
"G  c #826C22",
"H  c #8B7324",
"J  c #86722C",
"K  c #947C24",
"L  c #927925",
"P  c #836E3D",
"I  c #816D37",
"U  c #8A7532",
"Y  c #8E7A33",
"T  c #8D7A3C",
"R  c #857235",
"E  c #816B45",
"W  c #856C4B",
"Q  c #886F4C",
"!  c #806747",
"~  c #85714D",
"^  c #8A714E",
"/  c #827047",
"(  c #867251",
")  c #8B7452",
"_  c #887A57",
"`  c #927957",
"'  c #947C5B",
"]  c #987F5D",
"[  c #907756",
"{  c #897B69",
"}  c #9E8216",
"|  c #9C821D",
" . c #A18417",
".. c #AC8E17",
"X. c #A1861C",
"o. c #A58A1C",
"O. c #AA8D1C",
"+. c #A78A16",
"@. c #AF9016",
"#. c #AE911C",
"$. c #B39416",
"%. c #B3951C",
"&. c #B7981C",
"*. c #BB9B1B",
"=. c #BA9917",
"-. c #9E8522",
";. c #9C8322",
":. c #9B842B",
">. c #97802B",
",. c #9A863C",
"<. c #A08623",
"1. c #A58B24",
"2. c #A98E23",
"3. c #A98E2A",
"4. c #A58C2A",
"5. c #AE9223",
"6. c #AB9129",
"7. c #B29523",
"8. c #B69823",
"9. c #BC9D22",
"0. c #B29629",
"q. c #B5992A",
"w. c #BB9D2A",
"e. c #AF9632",
"r. c #B39932",
"t. c #BFA024",
"y. c #BFA12A",
"u. c #BCA33F",
"i. c #C09E1B",
"p. c #C4A21B",
"a. c #C8A61D",
"s. c #CCA81B",
"d. c #D2AE1F",
"f. c #D6B11E",
"g. c #DBB51F",
"h. c #DFB81F",
"j. c #E3BC1F",
"k. c #C4A323",
"l. c #C8A723",
"z. c #CCAA24",
"x. c #C4A52A",
"c. c #CBAB2B",
"v. c #C7A82A",
"b. c #D1AE24",
"n. c #D5B122",
"m. c #DAB523",
"M. c #DEB823",
"N. c #DEB929",
"B. c #D6B32A",
"V. c #C4A630",
"C. c #CBAC31",
"Z. c #E4BD21",
"A. c #EDC41F",
"S. c #EBC321",
"D. c #F1C722",
"F. c #F1C823",
"G. c #9A8745",
"H. c #958040",
"J. c #99815F",
"K. c #978A53",
"L. c #A18E43",
"P. c #A08E4A",
"I. c #A7954D",
"U. c #AD9A4F",
"Y. c #B19C49",
"T. c #AC9C5C",
"R. c #B29F50",
"E. c #BAA54F",
"W. c #9D8463",
"Q. c #9D936D",
"!. c #938675",
"~. c #9B907E",
"^. c #88826E",
"/. c #A18969",
"(. c #A08867",
"). c #A99B63",
"_. c #B1A471",
"`. c #908E86",
"'. c #9C9687",
"]. c #959597",
"[. c #A59A8C",
"{. c #A69985",
"}. c #A19D93",
"|. c #AEA392",
" X c #B2A899",
".X c #A7A7A7",
"XX c #B8AEA1",
"oX c #BDB4A5",
"OX c #C1B7A9",
"+X c #C3BAAC",
"@X c #C2B8A7",
"#X c #C7BEB1",
"$X c #CBC2B6",
"%X c #CFC6B9",
"&X c #D0C7BB",
"*X c #D1C9BD",
"=X c #D6CDC1",
"-X c #D9D1C6",
";X c #DBD3C9",
/* pixels */
"                                                                                                                                ",
"                                                                                                                                ",
"                                                                                                                                ",
"                                                                                                                                ",
"                                                                                                                                ",
"                                                                                                                                ",
"                                                                                                                                ",
"                                                      /.(.] ] ' ' ] J.J.W./.                                                    ",
"                                                (.' ) ) ^ W W ~ Q ^ ^ Q W [ ' J./.                                              ",
"                                            (.] ^ Q Q ^ ^ W ^ ~ Q ^ ^ W ~ ^ ^ W ) J./.                                          ",
"                                        /.' Q Q Q Q Q ( ) ) _ ~ ( ( ) ( ) ) ^ ~ Q W ) W.                                        ",
"                                      ] [ Q Q ) Q ) ( W j s t y w e t i j z ^ ^ Q Q Q ^ J.                                      ",
"                                    (.) W W ^ ) ( j e < 4 7 | } V V D B 4 q r z ) Q Q Q Q `                                     ",
"                                  ] ) W Q ^ ) l t 4 6 m V ;.} @.-.S O.O.A C 7 w p ^ ^ ^ Q Q [                                   ",
"                                ] [ ) Q W ) j w B V S Z Z ;.O.@.| S o...| | ;.>.M r W ) Q W Q '                                 ",
"                                ) W ) W ~ d 1 D +.| S Z | -.O.@.<.| o.#.| ;.:.4.O.B r E ^ W Q ^ '                               ",
"                              [ W ^ ^ ) j q V ....| | Z | ;.e.T.;.| O.#.| ;.1.6.%...Z t ~ Q Q Q Q '                             ",
"                            ' W W ) ^ z q M ;.#.o.| | B | -.I.^.T -.o.#.| -.4.5.$.$.#.B i ^ Q Q z [                             ",
"                            ' W Q ^ ^ r m K <.#.o.| | Z ;.-.G.;.,.:.O.#.-.-.4.5.%...%.@.7 d ^ Q k )                             ",
"                            [ W W ) d N S <.<.#.o.| | Z | L.,.=.6.L.%.#.-.<.6.7.O.1.5.&.} t ^ W k Q `                           ",
"                          ' ^ W W ( y D ..<.1.%.o.-.| Z 4.K.1.=.#.L.r.#.<.<.6.%.2.4.2.O.$.C k Q k W [                           ",
"                          ` Q W Q l 6 ..%.1.2.%.o.-.| A P.T O.&.5.:.I.5.1.4.5.%.1.4.2.4.=.S t ^ k W [                           ",
"                          ) W W Q p m %.$.1.2.=.o.-.H [ '.z P P P P '._ d :.0.&.4.2.4.2.7.$.a W k W )                           ",
"                          Q W W ^ r D *.=.2.5.=.O.<.U oX}.}.oX'.|.+X].'.{.H 7.%.2.2.1.2.7.=.C l ! Q Q                           ",
"                          W Q W W e } *.=.5.&.*.O.o.T $X*X=X$X0 h $X$X&X@XU &.5.2.2.1.2.7.i.D l ! Q ^                           ",
"                          W Q W ~ r } p.*.%.&.i.O.| ,.*X;X;X{ . . ^.;X;X@XY &.2.6.2.O.2.7.p.| d ! Q Q                           ",
"                          W Q W ^ y | p.i.5.9.i.O.| G.*X=X=X'.g h @X-X-X+XU %.5.6.2.o.2.7.p. .d W ^ Q                           ",
"                          ! Q W ~ s | p.i.8.*.i.O.| G.#X%X=X;X!.!.;X;X-X+XU %.0.2.5.o.6.0.p.| d W ^ Q                           ",
"                          k W W ( v I.p.p.p.p.i.O.} T [. XoX$X+XoX#X+XXX~.F %.0.O.5.o.5.0.p.X.l ~ ^ W                           ",
"                          k W W ) c ).a.p.p.p.9.o.| K a a R T ,.G.T R R F H %.0.5.5.O.5.0.9.S E ^ ^ ^                           ",
"                            Q W ^ v Q.a.p.s.a.w.O. .o.O.o.o.1.&.p.#.2.&.q.0.p.8.5.5.o.7.q.9.S E ^ ( ^                           ",
"                            W W ^ v Q.z.p.s.a.w.2.} o.O.5.O.5.i.a.8.5.9.x.8.p.q.5.5.O.7.q.8.L Q ^ ^ Q                           ",
"                            W W ( z L a.p.a.k.w.2.+.o.S 8 m 2.*.s.*.7.&.y.q.p.q.7.5.O.<.M L H ( ( ^ Q                           ",
"                            W W ^ W A $.> Z x.w.#.o.} , @ & 6 7.s.a.0.5.L 6 &.8.7.7.o.1 * < q ( ^ ) W                           ",
"                            Q Q ^ ( 4 % + + m 0.7. .2 X O @ @ 6 p.a.5.3 & = 3 1.7.5.3 * * @ 9 ( ^ ^ !                           ",
"                            W Q ^ ( $ O + + & a 1.3 X O O @ @ $ V i.a @ + $ & 2 <.M @ * * * 9 ) ) ^ !                           ",
"                            W ^ ^ ) 9 X ; : = 9 < o X o 4 3 $ @ ; N $ $ - > % # < & @ = G 1 0 ) ) Q W                           ",
"                            ! ^ ^ ) 9 2 %.*.M 9 @ @ O 8 #.#.V - , + $ , X.s.S - @ @ @ V y.1.s ) ) Q !                           ",
"                            W Q ( ) s o.9.d.y.>., - 5 O.%.0.8.X.4 + ; S 9.d.z.<.2 - 8 8.y.4.f ) ^ Q                             ",
"                            k Q ^ [ I o.9.d.k.x.5.2.@.#.#.&.8.8.8.N S t.9.d.b.w.7.5.Y.u.x.<.l [ ^ Q                             ",
"                              W ^ ) P X.9.f.l.V.9.8.%.#.#.&.9.8.9.9.g.l.9.z.n.t.w._.`.'.E.<.l ) ^ Q                             ",
"                              W ^ ) E | *.m.l.V.w.8.%.%.#.%.8.8.9.k.j.l.8.z.g.k.r.}.].]._.;.l ) ^ Q                             ",
"                              W W ) ~ A i.f.l.x.w.9.&.%.%.%.8.9.9.i.g.d.9.k.Z.z.3.`..X.X).K z ) ^ Q                             ",
"                              W ^ ^ ~ L t.m.l.V.x.9.7.%.%.%.8.t.9.k.j.f.9.t.g.b.7./ n { r.L W ) Q W                             ",
"                              W ~ ^ ~ _ u.g.l.x.x.w.8.&.%.%.9.9.t.z.j.f.t.k.m.m.k.8.;.7.k.H W ) Q W                             ",
"                              ! W ^ ( b R.f.l.x.C.t.9.&.=.%.9.9.9.z.j.g.k.k.Z.m.v.x.*.t.t.J ~ ^ Q W                             ",
"                              ! ^ ^ ) c T.f.z.x.C.x.9.&.&.&.8.k.t.z.Z.n.t.z.Z.m.v.k.9.9.9.F ~ ^ Q W                             ",
"                              l Q Q ) v ).b.z.t.c.x.t.&.&.&.*.t.t.b.Z.b.t.b.Z.Z.c.v.t.i.9.F ( ^ ( !                             ",
"                              k Q Q ^ f 6.b.z.k.c.v.9.&.&.&.i.t.k.b.Z.n.k.z.j.Z.b.l.k.9.8.F ) Q ^ W                             ",
"                              k Q ^ ) R #.b.n.9.c.v.k.*.&.*.9.k.k.m.Z.b.k.z.S.S.B.v.k.k.7.f ) W ^ !                             ",
"                                W Q ) I 2.b.M.k.v.c.t.*.&.=.*.k.k.m.j.b.k.l.Z.A.Z.v.k.k.&.f ) W Q k                             ",
"                                W ^ ) / 1.b.Z.l.v.c.k.*.&.*.k.k.k.M.A.z.k.k.Z.S.Z.v.k.k...f ) W W                               ",
"                                W W ) / <.B.S.s.l.c.k.i.=.*.k.k.c.Z.S.b.k.k.m.A.Z.c.k.l.1.f ) Q W                               ",
"                                W W ^ ~ ;.Z.S.b.k.c.k.i.=.t.k.c.z.Z.S.b.k.k.m.D.N.C.k.l.X.d ) ^ !                               ",
"                                W W ( ( K Z.S.m.k.l.l.t.=.i.l.l.z.S.S.z.p.l.M.F.N.c.p.l.-.l Q ) !                               ",
"                                W Q ^ ) K Z.F.M.k.l.l.i.i.i.l.c.B.S.S.z.k.l.M.F.B.c.p.l.;.z ! Q W                               ",
"                                W W ^ ) U                                                 Q E ! W                               ",
"                                                                                                                                ",
"                                                                                                                                ",
"                                                                                                                                ",
"                                                                                                                                ",
"                                                                                                                                ",
"                                                                                                                                ",
"                                                                                                                                "
};
