/* XPM */
static char *result[] = {
/* columns rows colors chars-per-pixel */
"64 64 234 2 ",
"   c #3E2D21",
".  c #342C2C",
"X  c #3E312B",
"o  c #2C2B36",
"O  c #342E32",
"+  c #39393E",
"@  c #1F263D",
"#  c #6F1012",
"$  c #432F1F",
"%  c #58042E",
"&  c #5B0532",
"*  c #56153B",
"=  c #640334",
"-  c #6C0339",
";  c #74043D",
":  c #74133A",
">  c #402E21",
",  c #443121",
"<  c #4B3522",
"1  c #4E3A26",
"2  c #533B23",
"3  c #573E27",
"4  c #4A3B33",
"5  c #642312",
"6  c #59451A",
"7  c #634C1C",
"8  c #695419",
"9  c #755F1E",
"0  c #5C4427",
"q  c #594536",
"w  c #4C403A",
"e  c #624525",
"r  c #694B28",
"t  c #7D5A2E",
"y  c #745529",
"u  c #674C36",
"i  c #69523D",
"p  c #6E552A",
"a  c #7C6F30",
"s  c #162848",
"d  c #1C2E4D",
"f  c #1F304F",
"g  c #23334E",
"h  c #393A45",
"j  c #243553",
"k  c #2B3C58",
"l  c #363F51",
"z  c #760C45",
"x  c #723561",
"c  c #5D2945",
"v  c #33425D",
"b  c #39435B",
"n  c #364561",
"m  c #3B4A65",
"M  c #3C4B66",
"N  c #3D5368",
"B  c #484747",
"V  c #52484A",
"C  c #4A545A",
"Z  c #585659",
"A  c #41495A",
"S  c #674C46",
"D  c #695446",
"F  c #71594C",
"G  c #67595A",
"H  c #745B55",
"J  c #705D5D",
"K  c #7A664A",
"L  c #7B6458",
"P  c #6D6954",
"I  c #404E68",
"U  c #44526C",
"Y  c #49576C",
"T  c #555B68",
"R  c #495770",
"E  c #4D5A73",
"W  c #525E75",
"Q  c #73536D",
"!  c #4B6566",
"~  c #546279",
"^  c #5A667D",
"/  c #5A6677",
"(  c #5C7475",
")  c #556670",
"_  c #776A66",
"`  c #696B77",
"'  c #677477",
"]  c #706B71",
"[  c #93191B",
"{  c #821314",
"}  c #A1161F",
"|  c #B71D39",
" . c #B41C36",
".. c #A91A2A",
"X. c #9A2F2D",
"o. c #B8263A",
"O. c #AA3330",
"+. c #932920",
"@. c #C0273F",
"#. c #8A731D",
"$. c #92492C",
"%. c #B25437",
"&. c #887639",
"*. c #90732E",
"=. c #B36934",
"-. c #840545",
";. c #8D054A",
":. c #880646",
">. c #92054D",
",. c #920C4C",
"<. c #990551",
"1. c #A50558",
"2. c #A60758",
"3. c #A81559",
"4. c #B21A5E",
"5. c #98364D",
"6. c #AB304A",
"7. c #B91C63",
"8. c #BC2264",
"9. c #CB3548",
"0. c #C93146",
"q. c #C82E6B",
"w. c #C32868",
"e. c #C83871",
"r. c #B4414F",
"t. c #877645",
"y. c #826B53",
"u. c #8A7554",
"i. c #937C52",
"p. c #80654B",
"a. c #8F5272",
"s. c #B85768",
"d. c #A75163",
"f. c #82647A",
"g. c #986678",
"h. c #84726F",
"j. c #A86779",
"k. c #B36F7F",
"l. c #A15450",
"z. c #C84455",
"x. c #CB654E",
"c. c #C35363",
"v. c #AC952C",
"b. c #A48939",
"n. c #B39635",
"m. c #98823B",
"M. c #CCB134",
"N. c #96854C",
"B. c #9B8557",
"V. c #948947",
"C. c #A89653",
"Z. c #AE934D",
"A. c #BBA75A",
"S. c #BEA047",
"D. c #908D6F",
"F. c #B39A66",
"G. c #AA8F70",
"H. c #B8A86E",
"J. c #C7904C",
"K. c #C4A647",
"L. c #C5AE5B",
"P. c #CEB159",
"I. c #E4B951",
"U. c #C3AB68",
"Y. c #CBB563",
"T. c #CAB468",
"R. c #CDB66D",
"E. c #D4C174",
"W. c #DEC457",
"Q. c #5E6A80",
"!. c #626D83",
"~. c #6C6D81",
"^. c #657186",
"/. c #6A758A",
"(. c #6D7A8D",
"). c #6C7985",
"_. c #707B8E",
"`. c #777887",
"'. c #727D91",
"]. c #746D82",
"[. c #8F7489",
"{. c #AA7586",
"}. c #A65781",
"|. c #768689",
" X c #798495",
".X c #7D8799",
"XX c #7A8796",
"oX c #7D9696",
"OX c #828B9B",
"+X c #888E91",
"@X c #879A9D",
"#X c #89918B",
"$X c #8B94A4",
"%X c #8790A1",
"&X c #939CAA",
"*X c #989AA6",
"=X c #A695AA",
"-X c #99A1AE",
";X c #95A5AA",
":X c #9CA4B1",
">X c #9FA9B5",
",X c #9EBCB7",
"<X c #8BA6A4",
"1X c #A5AAB6",
"2X c #ABB1BC",
"3X c #A7B0B5",
"4X c #A9ABAE",
"5X c #989299",
"6X c #A6C2BE",
"7X c #9FC0BB",
"8X c #E4D28A",
"9X c #B1B7C1",
"0X c #B5BBC5",
"qX c #B8BFC8",
"wX c #AFB6C0",
"eX c #C5B7C6",
"rX c #AECBC5",
"tX c #B9C6C8",
"yX c #B9D2CD",
"uX c #C1C6CE",
"iX c #C3CACD",
"pX c #C9CDD5",
"aX c #C4C9D1",
"sX c #C8D7D7",
"dX c #D3D6DC",
"fX c #D5CCD5",
"gX c #C9E0DB",
"hX c #D7E1DF",
"jX c #D9DCE1",
"kX c #DEE2E4",
"lX c #E6E7E9",
"zX c #EFF0F2",
"xX c #EDEEF0",
"cX c None",
/* pixels */
"cXcXcXcXcXcXcXcXcXcXcXcXcXcXcXcXcXcXcXcXcXcXcXcXcXcXcXcXcXcXcXcXcXcXcXcXcXcXcXcXcXcXcXcXcXcXcXcXcXcXcXcXcXcXcXcXcXcXcXcXcXcXcXcX",
"cXcXcXcXcXcXcXcXcXcXcXcXcXcXcXcXcXcXcXcXcXcXcXcXcXcXcXcXcX-.;.1.1.;.-.cXcXcXcXcXcXcXcXcXcXcXcXcXcXcXcXcXcXcXcXcXcXcXcXcXcXcXcXcX",
"cXcXcXcXcXcXcXcXcXcXcXcXcXcXcXcXcXcXcXcXcXcXcXcXcXcX-.-.>.2.7.7.8.7.3.>.-.:.cXcXcXcXcXcXcXcXcXcXcXcXcXcXcXcXcXcXcXcXcXcXcXcXcXcX",
"cXcXcXcXcXcXcXcXcXcXcXcXcXcXcXcXcXcXcXcXcXcXcXcXcXcX>.3.4.8.q.q.q.q.7.3.3.>.cXcXcXcXcXcXcXcXcXcXcXcXcXcXcXcXcXcXcXcXcXcXcXcXcXcX",
"cXcXcXcXcXcXcXcXcXcXcXcXcXcXcXcXcXcXcXcXcXcXcXcXcX>.2.w.q.q.q.q.7.w.8.8.8.3.;.cXcXcXcXcXcXcXcXcXcXcXcXcXcXcXcXcXcXcXcXcXcXcXcXcX",
"cXcXcXcXcXcXcXcXcXcXcXcXcXcXcXcXcXcXcXcXcXcXcXcX% 1.w.w.w.q.q.w.4.2.3.8.8.7.2.& cXcXcXcXcXcXcXcXcXcXcXcXcXcXcXcXcXcXcXcXcXcXcXcX",
"cXcXcXcXcXcXcXcXcXcXcXcXcXcXcXcXcXcXcXcXcXcXcXcX& 1.8.7.7.e.e.e.e.e.e.3.:.,.8.= cXcXcXcXcXcXcXcXcXcXcXcXcXcXcXcXcXcXcXcXcXcXcXcX",
"cXcXcXcXcXcXcXcXcXcXcXcXcXcXcXcXcXcXcXcXcXcXcXcX-.1.1.7.}.=XfXlXlXfX=Xa.<.:.:.:.cXcXcXcXcXcXcXcXcXcXcXcXcXcXcXcXcXcXcXcXcXcXcXcX",
"cXcXcXcXcXcXcXcXcXcXcXcXcXcXcXcXcXcXcXcXcXcXcXcX1.1.a.=XeXpXxXzXzXxXfXeX=XQ z = cXcXcXcXcXcXcXcXcXcXcXcXcXcXcXcXcXcXcXcXcXcXcXcX",
"cXcXcXcXcXcXcXcXcXcXcXcXcXcXcXcXcXcXcXcXcXcXcXcXz ;.[.aXlXjXuXjXjXaXjXlXpX[.-.& cXcXcXcXcXcXcXcXcXcXcXcXcXcXcXcXcXcXcXcXcXcXcXcX",
"cXcXcXcXcXcXcXcXcXcXcXcXcXcXcXcXcXcXcXcXcXcXcXcX% x 1X1X&X.X$XdXdX$X.X&XwX=Xx & cXcXcXcXcXcXcXcXcXcXcXcXcXcXcXcXcXcXcXcXcXcXcXcX",
"cXcXcXcXcXcXcXcXcXcXcXcXcXcXcXcXcXcXcXcXcXcXcXcX* Q.uX%Xn j Q.pXdXQ.j v OXtXQ.* cXcXcXcXcXcXcXcXcXcXcXcXcXcXcXcXcXcXcXcXcXcXcXcX",
"cXcXcXcXcXcXcXcXcXcXcXcXcXcXcXcXcXcX;.;.:.>.cXcXn (.pX&XU j E jXjXR j U &XfX/.* z cXcXcXcXcXcXcXcXcXcXcXcXcXcXcXcXcXcXcXcXcXcXcX",
"cXcXcXcXcXcXcXcXcXcXcXcXcXcXcXcX-.:.2.1.2.2.<.z M -XaX9X.X!.&XxXxX&X^..X0XtX-XM z -.>.1.1.:.cXcXcXcXcXcXcXcXcXcXcXcXcXcXcXcXcXcX",
"cXcXcXcXcXcXcXcXcXcXcXcXcXcXcX-.;.1.1.2.>.; & * J OX>X>X1X2XdXzXzXdXwX:X1X:X.XM * & - >.2.1.-.cXcXcXcXcXcXcXcXcXcXcXcXcXcXcXcXcX",
"cXcXcXcXcXcXcXcXcXcXcXcX-.-.-.-.;.2.- - cXcXcXcXy v Q.Q.'.qXxXzXzXlXqX'.Q.Q.n p cXcX= - >.2.1.cXcXcXcXcXcXcXcXcXcXcXcXcXcXcXcXcX",
"cXcXcXcXcXcXcXcXcXcXcX-.-.-.; - - cXcXcXS H h.j.&.V l n R !.^.^.^.^.!.R n b V a p.H F c cX>.1.>.cXcXcXcXcXcXcXcXcXcXcXcXcXcXcXcX",
"cXcXcXcXcXcXcXcXcXcXcX- -.; = % cXcXcXcXu.i.C.F.C.u.Z l I n s s s s n I b V u.N.p.H p.F cX-.>.; = cXcXcXcXcXcXcXcXcXcXcXcXcXcXcX",
"cXcXcXcXcXcXcXcXcXcXcX% z - cXcXcXcXcXu C.Y.Y.A.A.C.y.G W !.E ~ ~ E ^ W Z u.C.C.y.p.t.&.u cX-.= = = cXcXcXcXcXcXcXcXcXcXcXcXcXcX",
"cXcXcXcXcXcXcXcXcXcXcX% ; = cXcXcXcXe F C.Y.Y.A.T.A.Z.u._ '.1XeXuX1X`._ u.C.C.N.t.t.t.t.F *.cXcX5.: % cXcXcXcXcXcXcXcXcXcXcXcXcX",
"cXcXcXcXcXcXcXcXcXcXcXcX% cXcXcXcXcX0 F B.L.R.R.G.F.T.U.i.H h.@XOX_ H B.C.C.V.L K V.&.*.K.I.I.K.n.$.& cXcXcXcXcXcXcXcXcXcXcXcXcX",
"cXcXcXcXcXcXcXcXcXcXcXcX% cXcXcXcXcX> , S B.U.Y.F.G.G.H.R.Y.T.R.R.A.C.C.i.L L t.V.#.Z.Y.Z.o.o.o.$.&.*.8 cXcXcXcXcXcXcXcXcXcXcXcX",
"cXcXcXcXcXcXcXcXcXcXcX% cXcXcXcXcXe 0 o l G B.A.R.R.T.U.L.L.F.G.G.u.y.y.K y.N.N.C.P.P.J.o.9.9.9.O.6.$.9 cXcXcXcXcXcXcXcXcXcXcXcX",
"cXcXcXcXcXcXcXcXcXcXcXcXcXcXcXcXcXD e ` ^ Y G i.B.L.Y.Y.Y.L.T.U.R.F.F.F.C.C.C.C.&.K.J.r.0.z.j.}.g.5...5 cXcXcXcXcXcXcXcXcXcXcXcX",
"cXcXcXcXcXcXcXcXcXcXcXcXcXcXcXcXF i h.2X2XQ.l V Z t.B.F.U.U.L.Y.U.U.L.U.F.i.&.P *.K.x.@.z.j.5X&X%X[.5.[ cXcXcXcXcXcXcXcXcXcXcXcX",
"cXcXcXcXcXcXcXcXcXcXcXcXcXcXcXcXi u 4XlXaX!.@ o l S S h.i.N.B.B.B.B.N.i._ G S b U.P.x.6.j.5X&X-X=XOX[.5.# cXcXcXcXcXcXcXcXcXcXcX",
"cXcXcXcXcXcXcXcXcXcXcXcXcXcXcXcXq u iXlX$Xb o O M /.R V q S J G J J S q B R /.m E.P.x.s.@X:X:X-X-X&XOX` # cXcXcXcXcXcXcXcXcXcXcX",
"cXcXcXcXcXcXcXcXcXcXcXcXcXcXcXcXv j *XiXG .   X I &X'.R M R !.Q./ ~.R M R '.:XM R.x.@.s.$X*X-X:X-X&X5X] [ cXcXcXcXcXcXcXcXcXcXcX",
"cXcXcXcXcXcXcXcXcXcXcXcXcXcXcXcX^.&X/.R j o > 4  X/.9XaXtXwX.X.X.X.XwXtXuX9X^..X8Xx.@.s.%X1X:X1X-X{.d.Q ..# cXcXcXcXcXcXcXcXcXcX",
"cXcXcXcXcXcXcXcXcXcXcXcXcXcXcXL :XtXU j o   $ B &X.X.X^.Q.W I v v I W Q.^.OXOX&X8Xx.0.s.%X*Xs.c.{.{.5.Q  .# cXcXcXcXcXcXcXcXcXcX",
"cXcXcXcXcXcXcXcXcXcXcXcXcXcXC `.uXaX^ j O     4 !.&X1X:X'.Q.E M M E Q..X:X1X&X!.E.=.@.s.%X=X9.9.g.[.[.!.a.{ cXcXcXcXcXcXcXcXcXcX",
"cXcXcXcXcXcXcXcXcXcXcXcXcXU U  XpX9X~ j .   > X k /.$X&X.XW M R U M W  X&X$X^.k A.=.O.6.{.$X{.z.g._._.(.` +.cXcXcXcXcXcXcXcXcXcX",
"cXcXcXcXcXcXcXcXcXcXcXcXcX^ !.(.$X XY j o . $ . j W (.W n j j W W j j v E ^.Q.f N.b.%.@.z.{.{.z.g.(.].f.`.[ cXcXcXcXcXcXcXcXcXcX",
"cXcXcXcXcXcXcXcXcXcXcXcXI ^.&X.Xn R ~ n d . $ + Q.>X&XE f s v .X.Xv d f E -X-XQ.a v.%.o.9.9.9.6.f.~.a.6.(.[ cXcXcXcXcXcXcXcXcXcX",
"cXcXcXcXcXcXcXcXcXcXcXcX`.` ).&XwX1X~ j . >   D pX>X_.Q.R n M Q.Q.M n E Q.'.1XpXi.S.=.} o.9.| f.(.a. .6.`.[ cXcXcXcXcXcXcXcXcXcX",
"cXcXcXcXcXcXcXcXcXcXcXcXoXZ C ' .X^ m ' w > < K tXpX XR E U j n M f R R R .XpXtXp.S.n.$.| o.| Q ^.`.].~.Q.# cXcXcXcXcXcXcXcXcXcX",
"cXcXcXcXcXcXcXcXcXcXcXcXw #X@X|.W j n V.n.#.0 i .X.X$X$X~.v s d f s v Q.$X$X.X'.i *.b.=.} |  .6.Q /.'.` 5.# cXcXcXcXcXcXcXcXcXcX",
"cXcXcXcXcXcXcXcXcXcXcXcXb ( |.5XH.G.V.v.v.#.8 q R R Q.'.^.U j s s j N Q.'.Q.R R q r m.n.X.|  . .6.5.5.5.} # cXcXcXcXcXcXcXcXcXcX",
"cXcXcXcXcXcXcXcXcXcXcXcXb b |.E.W.P.n.a y 8 e q U R R R ~ ^ U n M R Q.Q.E E R U q e *.n.*... .o.o.| | ..{ 5 cXcXcXcXcXcXcXcXcXcX",
"cXcXcXcXcXcXcXcXcXcXcXcXb I D.W.v.a V.0 2 0 r D '..X XW U W !.!.Q.Q.W U W  XOX'.i e y b.n.O.O.X. .|  .X.5 $ cXcXcXcXcXcXcXcXcXcX",
"cXcXcXcXcXcXcXcXcXcXcXcXcXC V.v.a ! |.i 9 t p K pXpXwX(.b k Y W E E l k (.9XpXpXK p t *.K.n.m.+.O.O.X.9 7 , cXcXcXcXcXcXcXcXcXcX",
"cXcXcXcXcXcXcXcXcXcXcXcXcXM.n.a ! |.,XoXP a y K zXzXdX(.+   X n n O > h ^.dXzXzXy.y t $.t a I.S.*.9 6     cXcXcXcXcXcXcXcXcXcXcX",
"cXcXcXcXcXcXcXcXcXcXcXcXcXM.n.a ( ,X7X7XP p y y.zXzX0X^ + >     > > > + ^ 0XxXxXy.p t i r $.*.0 < , ,   cXcXcXcXcXcXcXcXcXcXcXcX",
"cXcXcXcXcXcXcXcXcXcXcXcX8 #.#.6 C oX7XyX#XF K =XxXjX/.B 1 1 > > > > 2 1 B (.jXxX4XL y p < t t e q D S S cXcXcXcXcXcXcXcXcXcXcXcX",
"cXcXcXcXcXcXcXcXcXcXcXcX8 #.8 , 0 ( ,XgXrX#X#XaXxX0XN O 2 0 , cX> > 2 2 O I qXxXaXL 0 0 < r t e u D H H cXcXcXcXcXcXcXcXcXcXcXcX",
"cXcXcXcXcXcXcXcXcXcXcXcX6 8 0 0 0 P @X6XgXrX:X2XjX$Xk O , 1 cXcXcX> 1 < O k %XjXaXh.< 1 , 2 t r e D H H cXcXcXcXcXcXcXcXcXcXcXcX",
"cXcXcXcXcXcXcXcXcXcXcXcX4 q 0 e 7 p ( @X6XgXrX;X3XW k O   cXcXcXcXcXcX> O j W qX:X^.O > cX, p e e i H H cXcXcXcXcXcXcXcXcXcXcXcX",
"cXcXcXcXcXcXcXcXcXcXcXcXF F i 0 0 q ! ' <X6XsXyX|.v b h cXcXcXcXcXcXcXcX+ m n $X(.M o X cX$ 3 e e i H F cXcXcXcXcXcXcXcXcXcXcXcX",
"cXcXcXcXcXcXcXcXcXcXcXcXe D q 2 0 > cX! ( @XrXgXyX|.^.R cXcXcXcXcXcXcXcXU '.>X(.^.^.!.cXcXcX> 3 < u S e cXcXcXcXcXcXcXcXcXcXcXcX",
"cXcXcXcXcXcXcXcXcXcXcXcXe D q > , cXcXcX! ( @XrXgXgXoXY cXcXcXcXcXcXcXcXW &XlXjXpX%X!.cXcXcXcX, > 4 F e cXcXcXcXcXcXcXcXcXcXcXcX",
"cXcXcXcXcXcXcXcXcXcXcXcX> S 4 , , cXcXcXcX! ( @XrXgXsXoXcXcXcXcXcXcXcXcXW &XjXjX2X%XcXcXcXcXcX  , 4 S < cXcXcXcXcXcXcXcXcXcXcXcX",
"cXcXcXcXcXcXcXcXcXcXcXcX> u 3 > cXcXcXcXcXcX! ' @XrXsXiXrX<XcXcXcXcXcXk Q.wXpX X.XcXcXcXcXcXcXcX, 3 3 $ cXcXcXcXcXcXcXcXcXcXcXcX",
"cXcXcXcXcXcXcXcXcXcXcXcXcX1 1 cXcXcXcXcXcXcXcX) / @X6XhXgXtX4XcXcXcXh A !.&X-XN / cXcXcXcXcXcXcXcX1 1 cXcXcXcXcXcXcXcXcXcXcXcXcX",
"cXcXcXcXcXcXcXcXcXcXcXcXcXcXcXcXcXcXcXcXcXcX] T n ( oX,XiXhXhXyX;X' T ) ^.Q.W n T ] cXcXcXcXcXcXcXcXcXcXcXcXcXcXcXcXcXcXcXcXcXcX",
"cXcXcXcXcXcXcXcXcXcXcXcXcXcXcXcXcXcXcXcXcX] ) Z M v b ' <X,X6XkXlXyX;X X(.^ b I C ] ] cXcXcXcXcXcXcXcXcXcXcXcXcXcXcXcXcXcXcXcXcX",
"cXcXcXcXcXcXcXcXcXcXcXcXcXcXcXcXcXcXcXcXcXcX] tX`.B w <X@X! ( 6XsXkXlXsX<X' w ] qX' cXcXcXcXcXcXcXcXcXcXcXcXcXcXcXcXcXcXcXcXcXcX",
"cXcXcXcXcXcXcXcXcXcXcXcXcXcXcXcXcXcXcXcXcXcXcX] lXdXiX*X/ v N ) |.,XyXgXyX<X^.|.Z cXcXcXcXcXcXcXcXcXcXcXcXcXcXcXcXcXcXcXcXcXcXcX",
"cXcXcXcXcXcXcXcXcXcXcXcXcXcXcXcXcXcXcXcXcXcXOX:X%X%XOX(.W k g cXcXN W (.oX X^.!.&XOXcXcXcXcXcXcXcXcXcXcXcXcXcXcXcXcXcXcXcXcXcXcX",
"cXcXcXcXcXcXcXcXcXcXcXcXcXcXcXcXcXcXcXcXcX-XqXqX1X&X1X%XE f cXcXcXcXg E %X>X&X>XqXqX-XcXcXcXcXcXcXcXcXcXcXcXcXcXcXcXcXcXcXcXcXcX",
"cXcXcXcXcXcXcXcXcXcXcXcXcXcXcXcXcXcXcXcX-XwXqX0XtX&XsX$XY cXcXcXcXcXcXU $XsX&XtX0XqX9X&XcXcXcXcXcXcXcXcXcXcXcXcXcXcXcXcXcXcXcXcX",
"cXcXcXcXcXcXcXcXcXcXcXcXcXcXcXcXcXcXcX~ 1X:X$XqX$X$XuX(.cXcXcXcXcXcXcXcX/.tX&X%X0X$X:X1X~ cXcXcXcXcXcXcXcXcXcXcXcXcXcXcXcXcXcXcX",
"cXcXcXcXcXcXcXcXcXcXcXcXcXcXcXcXcXcXcXn !.^ '.9XI aX$XW cXcXcXcXcXcXcXcXE $XpXU 9X XQ.!.n cXcXcXcXcXcXcXcXcXcXcXcXcXcXcXcXcXcXcX",
"cXcXcXcXcXcXcXcXcXcXcXcXcXcXcXcXcXcXcXcXn cXcXn cXn n cXcXcXcXcXcXcXcXcXcXn n cXn cXcXn cXcXcXcXcXcXcXcXcXcXcXcXcXcXcXcXcXcXcXcX",
"cXcXcXcXcXcXcXcXcXcXcXcXcXcXcXcXcXcXcXcXcXcXcXcXcXcXcXcXcXcXcXcXcXcXcXcXcXcXcXcXcXcXcXcXcXcXcXcXcXcXcXcXcXcXcXcXcXcXcXcXcXcXcXcX"
};
