/* XPM */
static char *result[] = {
/* columns rows colors chars-per-pixel */
"64 64 234 2 ",
"   c #46230D",
".  c #533015",
"X  c #562D23",
"o  c #6D520E",
"O  c #7E6A07",
"+  c #704D34",
"@  c #741453",
"#  c #245048",
"$  c #575451",
"%  c #73674F",
"&  c #716B6E",
"*  c #665B4D",
"=  c #ED0000",
"-  c #E60007",
";  c #FF0106",
":  c #F6080A",
">  c #F10D0F",
",  c #D60038",
"<  c #D40C29",
"1  c #FF0A21",
"2  c #FF0721",
"3  c #ED0533",
"4  c #E8210B",
"5  c #877209",
"6  c #855233",
"7  c #9D772E",
"8  c #D96D11",
"9  c #E94E15",
"0  c #B43258",
"q  c #9C2165",
"w  c #FB095A",
"e  c #EC064E",
"r  c #D40074",
"t  c #F3026F",
"y  c #D73462",
"u  c #985849",
"i  c #966A4E",
"p  c #AE7256",
"a  c #8F776C",
"s  c #AA6167",
"d  c #C7685F",
"f  c #11817F",
"g  c #97880D",
"h  c #A49409",
"j  c #B7AE05",
"k  c #A29D38",
"l  c #CB9417",
"z  c #C6AB14",
"x  c #C6A419",
"c  c #C9AC16",
"v  c #CBB70F",
"b  c #D4AB2A",
"n  c #C6C501",
"m  c #CBCB00",
"M  c #C9C604",
"N  c #D6C80B",
"B  c #D4D300",
"V  c #DCDC00",
"C  c #DCD307",
"Z  c #D1C41A",
"A  c #E1DC04",
"S  c #E4E400",
"D  c #EBEB00",
"F  c #F0F000",
"G  c #DAD028",
"H  c #EEC137",
"J  c #878774",
"K  c #AF8971",
"L  c #A6AC5D",
"P  c #D7A362",
"I  c #D2D757",
"U  c #F8CF53",
"Y  c #FDD965",
"T  c #F9D57B",
"R  c #FDE26D",
"E  c #FDE573",
"W  c #224E92",
"Q  c #275395",
"!  c #315C9D",
"~  c #375FA0",
"^  c #707682",
"/  c #466CAA",
"(  c #5D7BB8",
")  c #4D71AF",
"_  c #627EBC",
"`  c #556297",
"'  c #0831F7",
"]  c #3423C9",
"[  c #194CFE",
"{  c #2868FE",
"}  c #2464E1",
"|  c #575FD5",
" . c #6C3F90",
".. c #A40998",
"X. c #B42B8A",
"o. c #BB00BB",
"O. c #B805B4",
"+. c #B514AD",
"@. c #A02099",
"#. c #CD0090",
"$. c #F0048F",
"%. c #C33C8C",
"&. c #C705B1",
"*. c #FF1EB8",
"=. c #FF1CB4",
"-. c #FC11A8",
";. c #C428B1",
":. c #FF30B0",
">. c #F53095",
",. c #8A6E8A",
"<. c #A547A4",
"1. c #A74790",
"2. c #FF4DB4",
"3. c #D263B1",
"4. c #CC519C",
"5. c #C301C3",
"6. c #CC00CC",
"7. c #CD09CD",
"8. c #D300D3",
"9. c #DA05D9",
"0. c #D913D4",
"q. c #F10BD3",
"w. c #FE35D5",
"e. c #E703E7",
"r. c #E816E8",
"t. c #F305F3",
"y. c #F718F6",
"u. c #FA1BE7",
"i. c #FE2BFE",
"p. c #FB25FB",
"a. c #FF3BFF",
"s. c #FE34FE",
"d. c #FB2AE4",
"f. c #FF43D8",
"g. c #FF4DFE",
"h. c #FE47FA",
"j. c #FE58FE",
"k. c #FE67FE",
"l. c #FF77FF",
"z. c #508E88",
"x. c #778192",
"c. c #5D81B7",
"v. c #6482BE",
"b. c #6A85BF",
"n. c #7B8EB1",
"m. c #3292F9",
"M. c #6E8BC3",
"N. c #6984C1",
"B. c #7997CB",
"V. c #7795CA",
"C. c #7796CC",
"Z. c #76B0C9",
"A. c #50A7F4",
"S. c #429CFF",
"D. c #878787",
"F. c #939393",
"G. c #9D9B9D",
"H. c #8A8E95",
"J. c #B39A83",
"K. c #ADAA98",
"L. c #8D93B0",
"P. c #93A4B8",
"I. c #88B4AF",
"U. c #A8A8A8",
"Y. c #BDBDBC",
"T. c #B4B4B5",
"R. c #ABB1B1",
"E. c #D6AA8D",
"W. c #E5B395",
"Q. c #E3AD89",
"!. c #CBB6A8",
"~. c #E8BCA2",
"^. c #DB9488",
"/. c #A7C7A4",
"(. c #FEEB87",
"). c #FFF398",
"_. c #FEEC94",
"`. c #CFC6AE",
"'. c #ECCBB2",
"]. c #FFF8A5",
"[. c #FEFEB8",
"{. c #FFFEB3",
"}. c #EBEBA2",
"|. c #E0DD91",
" X c #809ECE",
".X c #809ED1",
"XX c #84A3D3",
"oX c #89A7D4",
"OX c #8BA9D6",
"+X c #8DADDA",
"@X c #86A7D8",
"#X c #90ADD7",
"$X c #91B2DD",
"%X c #9AB6DB",
"&X c #93ABCA",
"*X c #95B5E2",
"=X c #9BBBE4",
"-X c #9CBEEA",
";X c #97B8E4",
":X c #A2BBDE",
">X c #9EC1EC",
",X c #9FC0E6",
"<X c #A2C4ED",
"1X c #A9C8EB",
"2X c #BCD3EA",
"3X c #A2C5F1",
"4X c #A6C9F2",
"5X c #AACCF3",
"6X c #AED1F3",
"7X c #B3D3F4",
"8X c #BBDDFB",
"9X c #B8D8F7",
"0X c #B1CEEF",
"qX c #BEE1FD",
"wX c #C8C8C8",
"eX c gray86",
"rX c #D4D4D4",
"tX c #F7DDC3",
"yX c #F9E6D0",
"uX c #C4DEF6",
"iX c #C9DCEE",
"pX c #C4E4FC",
"aX c #CAE5FB",
"sX c #CDE6F9",
"dX c #D4ECFC",
"fX c #D9EBF7",
"gX c #DDF2FE",
"hX c gray88",
"jX c #EEECE6",
"kX c #E3F5FD",
"lX c #ECFBFE",
"zX c #E7F8FE",
"xX c #F1FEFF",
"cX c None",
/* pixels */
"cXcXcXcXcXcXcXcXcXcXcXcXcXcXcXcXcXcXcXcXcXcXcXcXcXcXcXcXcXcXcXcXcXcXcXcXcXcXcXcXcXcXcXcXcXcXcXcXcXcXcXcXcXcXcXcXcXcXcXcXcXcXcXcX",
"cXcXcXcXcXcXcXcXcXcXcXcXcXcXcXcXcXcXcXcXcXcXcXcXcXcXcXcXcXcXcXcXcXcXcXcXcXcXcXcXcXcXcXcXcXcXcXcXcXcXcXcXcXcXcXcXcXcXcXcXcXcXcXcX",
"cXcXcXcXcXcXcXcXcXcXcXcXcXcXcXcXcXcXcXcXcXcXcXcXcXcX(.{.[.[.[.[.[.{.[.[.].E cXcXcXcXcXcXcXcXcXcXcXcXcXcXcXcXcXcXcXcXcXcXcXcXcXcX",
"cXcXcXcXcXcXcXcXcXcXcXcXcXcXcXcXcXcXcXcXcXcXcXE ].].).).(.E T ]._.(.T (.).).{.).cXcXcXcXcXcXcXcXcXcXcXcXcXcXcXcXcXcXcXcXcXcXcXcX",
"cXcXcXcXcXcXcXcXcXcXcXcXcXcXcXcXcXcXcXcXcXcX).(.).].(.U U H H cXH H H U R _.]._.(.cXcXcXcXcXcXcXcXcXcXcXcXcXcXcXcXcXcXcXcXcXcXcX",
"cXcXcXcXcXcXcXcXcXcXcXcXcXcXcXcXcXcXcXcXcX[.{.{.(.Y U M n n n n n n n M Z U Y _.{.[.cXcXcXcXcXcXcXcXcXcXcXcXcXcXcXcXcXcXcXcXcXcX",
"cXcXcXcXcXcXcXcXcXcXcXcXcXcXcXcXcXcXcXcX[.).).cXG G N M m B m m m B V m N Z G I cX(.].cXcXcXcXcXcXcXcXcXcXcXcXcXcXcXcXcXcXcXcXcX",
"cXcXcXcXcXcXcXcXcXcXcXcXcXcXcXcXcXcXcXcX).(.U cXn m B m V V B m m B V B B B m m G Y (.).cXcXcXcXcXcXcXcXcXcXcXcXcXcXcXcXcXcXcXcX",
"cXcXcXcXcXcXcXcXcXcXcXcXcXcXcXcXcXcXcXcXR cXcXM n V S S V B B m m B B S S S B n N U U R cXcXcXcXcXcXcXcXcXcXcXcXcXcXcXcXcXcXcXcX",
"cXcXcXcXcXcXcXcXcXcXcXcXcXcXcXcXcXcXcXR U cXcXn V S S V B B B M B B B B V S A B n cXU U E cXcXcXcXcXcXcXcXcXcXcXcXcXcXcXcXcXcXcX",
"cXcXcXcXcXcXcXcXcXcXcXcXcXcXcX3X3XcXcXR cXZ m n V D D V A V B M m B V S S D S B M n cXY E cXcX<X3XcXcXcXcXcXcXcXcXcXcXcXcXcXcXcX",
"cXcXcXcXcXcXcXcXcXcXcXcXcXcX7X7X9XcX|.R cXM m B S D D D S S B m m V S S D F D V m M cXcXE cX1X9X9X0XcXcXcXcXcXcXcXcXcXcXcXcXcXcX",
"cXcXcXcXcXcXcXcXcXcXcXcXcX4XdXxXzX:X`.R cXn B S D F F D D A B m B B S D F F F D A m cXcXE R.2XlXxX9X3XcXcXcXcXcXcXcXcXcXcXcXcXcX",
"cXcXcXcXcXcXcXcXcXcXcXcX0XdXzXkXaX%X!.R cXn m S D D F F D A c z z N S D F D D S V n cXcXE &X1XdXlXkXsX4XcXcXcXcXcXcXcXcXcXcXcXcX",
"cXcXcXcXcXcXcXcXcXcXcX9XuXlXkXsX4X$X|.Y cXv v C C A D D A v z 8 l x N S D D C C N v b Y E T.,X7XdXlXgXuX7XcXcXcXcXcXcXcXcXcXcXcX",
"cXcXcXcXcXcXcXcXcXcX0XsXxXlXaX1X@XcXcXT H b c x x v S A v l l 4 9 l l N A A c x c c b U E cXcX$X7XfXlXlX9X5XcXcXcXcXcXcXcXcXcXcX",
"cXcXcXcXcXcXcXcXcX4XfXlXzXaX<X+XoXcXcXcX. h v v c c c c c 8 4 ; : 4 l c c c x z n n O + cXcXcXOX#X0XdXxXkXuX4XcXcXcXcXcXcXcXcXcX",
"cXcXcXcXcXcXcXcXcX7XkXxXkX9X*XoXoXM.cXcX. o O O h z x x x l 9 : 4 8 x x x x v h O O .   cXcXB.@XOX<XaXxXxXdX7XcXcXcXcXcXcXcXcXcX",
"cXcXcXcXcXcXcXcX8XdXlXlXdX4X*X+XOXB.C.cX  + + % g j z z c z l 9 8 v z z z z h 5 + + .   cXV.B.*X+X=X9XkXxXkXaXcXcXcXcXcXcXcXcXcX",
"cXcXcXcXcXcXcX4X9XxXlXgX8X4X3X3X<X3X3XcX  K '.'.+ 5 n n n v x x x c n n m j o K tXyXi   cX3X3X3X3X3X5XpXkXxXkX4XcXcXcXcXcXcXcXcX",
"cXcXcXcXcXcXcX9XaXlXgX9X3X$X-X5X7XqX$X` . J.'.E.p 6 o o o 7 T P P L o o o o 6 p W.tXi X N.4X7X7X3X*X=X5XpXgXzX8XcXcXcXcXcXcXcXcX",
"cXcXcXcXcXcXcXaXkXlX8X4X$XoX$X<XqXqX1Xn.$ a K i p 6 . % # & Q.W.W.E.# * + . u p i K & ` OX7XqX7X=X+X+X=X5XdXlXdX8XcXcXcXcXcXcXcX",
"cXcXcXcXcXcX4XdXxXlX7X$XOXOXOX=XqXqXpX7Xn.% . . u 6 * `.z.z.W.W.W.K.# I.F.X i + . . & +XpXpXqX6X+XOXOXOX=XuXxXxXuX4XcXcXcXcXcXcX",
"cXcXcXcXcXcX8XgXxXlX:XoX+X>X$X$X5XdXzXgX9XL j j % J '.jXz.$ W.'.'.K.# I.yX!.a g n j /.qXzXlXsX<XOX*X*XoXOX2XxXxXaX8XcXcXcXcXcXcX",
"cXcXcXcXcX5XqXgXzXsX%X$X=X3X-X*X*X9XgXlXgXI m m + J '.yXT.K.'.yX'.'.F.`.yX~.* 5 B n |.gXlXaX1X*X*X>X>X*XOX0XfXxXdX8X3XcXcXcXcXcX",
"cXcXcXcXcX7XaXkXgX6X$X*X>X-X>X3X$X,X9XzXxXI m m 5 7 K '.tXyXyXyXyXyXyX'.W.K 6 h B n }.zXgX1X=X%X4X<X-X3X#X%X9XlXdX8X5XcXcXcXcXcX",
"cXcXcXcXcXaXlXlXiXoXoX*X>XOX1XqX8X%X1XpXzXI m B C 5 + Q.'.'.tXtXyX[.tX~.p   j V B m }.kXqX$X<XqXqX=X$X<X#XoX%XlXxXgXqXcXcXcXcXcX",
"cXcXcXcXcXaXlXgX1XM. X*X>XOX1XqXqX<X,X6X6XI m B d @.q + K Q.'.~.~.~.Q.i @ ..X.b B m /.7X5X>X6XqXqX=X$X<X+XB. XpXzXkXqXcXcXcXcXcX",
"cXcXcXcX9XpXlXiX+X_  X=X4X$X<X1X<X3X3X4X6XL g d &.5.O.@ u u p p s i u + q o.5.%.p 5 K.6X3X4X4X1X1X=X-X5X$XV.M.<XdXgXqX6XcXcXcXcX",
"cXcXcX4X7XdXlX1XV.b. X<X7X<X$X$X$X,X3X4X7X& @ o.8.6.&.o.@ X . . . X X ..5.7.7.6...X G.9X3X>X;X+X$X=X4X7X#XV.b. XiXkXpX6X4XcXcXcX",
"cXcXcX8XdXlXlX%XM.XXoXOX+X+X1X9X7X3X>X4X8X& @ o.6.9.e.o.O.@.u p p s ..O.6.e.9.6...  L.qX3X3X5X9X9X=X+X#XOXXXB.b.2XxXzXpX8XcXcXcX",
"cXcXcXqXdXlXdXOXM.oXoX#X$XOX1XqXqX,X*X&X& a 0 O.9.t.t.r.5.+.%.^.4.X.o.8.r.t.e.6.@.u a x.*X*X1XqXqX=X+X%XOXoX X_ 1XgXlXaX8XcXcXcX",
"cXcXcX8XdXkX8X.XM.oX@X*X-X$X<X5X0X*XOXn.X 6 s ;.9.t.t.p.0.5.&.3.4.5.5.r.p.t.e.7.X.p + $ #X#X-X0X0X=X*X3X+XoX X_ ;XaXxXaX9XcXcXcX",
"cXcX4X9XgXkX5XB.M.OXOX*X4X<X*X@XOX-X$Xn.X   6 ^.;.9.t.p.r.9.7.&.6.8.8.r.y.t.5.4.p .   $ OX-X*XoXoX=X3X3X#XOX X_ +X9XxXsX6X3XcXcX",
"cXcX4XfXzXfX%XM.M.oX*X-X3X3X-X-X-X<X-X&X& K E.^.;.6.r.p.$.q } !.L.| e =.y.e.&.4.E.E.a D.-X>X>X-X=X-X3X3X-X$X X_ .X1XxXzXuX3XcXcX",
"cXcX4XkXxXfX XV.V.OX-X3X3X3X3X3X3X3X%XP.U.R.!.~.;.&.9.s.w y Z.I.&XH.: -.r.8.5.3.'.!.R.P.&X:X3X3X3X3X3X3X3X*X.XV.V.:XxXxXaX3XcXcX",
"cXcX5XkXlXiXN.B.oXoX-X3X3X3X3X3X3X3XP.F.rXU.U.~.;.7.9.i.w 9 }.A.Z.T : >.r.7.5.3.`.F.`.Y.x.%X3X3X3X3X-X3X3X;XoXoXM.OXlXlXaX4XcXcX",
"_ .X8XkXgX0XN.B.oXOX>X3X-X+X;X3X3X3XP.H.Y.rXT.F.+.5.7.p.w y A.A.S.L.> =.r.5.o.<.G.wXwXR.J %X3X3X3X*X*X3X3X;XoXOXM.XXaXlXdX4XN.cX",
"_ B.pXzXdX-X_ B.+X;X>X3X-X+X=X3X-X&XU.Y.rXeXwX& K %.5.r.w 0 m.{ { M.> $.0.O.d a F.eXeXwXT.P.&X3X3X$X$X3X3X-X*X@XM.B.7XkXdX0XN.cX",
"( XXdXzXuX$XN.B.$X3X3X3X-XB.$X-X,XH.R.hXhXhXY.J M d o.6.e 0 m.[ { _ - $.6.&.b L F.eXhXhXeXF.P.>X-XXX@X3X3X3X-X@XM.V.<XgXgX0XN.cX",
"_ #XxXxXiX X_ B.*X3X3X3X;XN.C.*X,XH.U.eXhXhXY.J Z d O.8.e 0 { m.m.} - $.6.O.b k G.eXeXhXrXF.P.>X@XM.C.3X3X3X>XOXM.M.#XfXxXsXb.cX",
"_ #XxXxX2XB._ b.C.3X3X3X;Xv.C.@XOXH.U.rXhXhXY.,.1.+.5.e.w q ' { [ ] - $.9.O.a J G.eXhXeXwXF.L.+XOXM.C.3X3X3X;XM._ M.OXfXxXhXM.cX",
"( &XxXxX2X Xv.) v.;X3X-XZ./ ) v.( x.U.rXhXhXwXG.<.+.8.t.w q ' [ [ ] > $.e.5.<.F.U.eXhXeXwXF.x.c.c.) N.-X>X>X@X) ( M.OXfXxXfXb.cX",
"( OXlXzX2X X( ~ / B.+X@XM.! W W Q ^ U.eXhXeXwXY.H.<.9.t.t 0 } ' ' | 3 -.e.7.,.G.`.rXeXeXrXF.` Q W W / C.+XZ.b.! / b.#XfXlXiXN.cX",
"_ XXpXqX1XV.! cXcX! ! ! ! cXcXcXcXJ U.wXeXU.G.Y.H.<.9.t.d.>., }  .< f.u.e.7.,.G.Y.H.wXrXY.F.^ cXcXcXcX! ~ ! ! cXQ ) +X9XpX0Xb.cX",
"( Z.qXqX<XM.Q cXcXcXcXcXcXcXcXcXcXcXF.U.eXY.U.G.<.+.9.t.s.w.>.s y :.h.i.r.7.,.D.G.U.wXwXG.H.cXcXcXcXcXcXcXcXcXcXW / OX7X8X1Xb.cX",
"cXV.$X$XB.v.! cXcXcXcXcXcXcXcXcXcXcXcXF.Y.T.G.^ +.7.r.t.h.j.h.w :.j.k.a.y.0.<.,.D.U.Y.R.J cXcXcXcXcXcXcXcXcXcXcXcX/ M.+X$X+Xv.cX",
"cXcXQ Q Q W cXcXcXcXcXcXcXcXcXcXcXcXcXcXD.D.J ,.+.0.i.i.k.k.g.g.j.j.l.g.i.p.7.<.x.J ,.J cXcXcXcXcXcXcXcXcXcXcXcXcXcXW W W W cXcX",
"cXcXcXcXcXcXcXcXcXcXcXcXcXcXcXcXcXcXcXcXcXcX<.+.5.r.s.i.k.l.k.j.j.l.l.g.i.i.9.O.@.cXcXcXcXcXcXcXcXcXcXcXcXcXcXcXcXcXcXcXcXcXcXcX",
"cXcXcXcXcXcXcXcXcXcXcXcXcXcXcXcXcXcXcXcXcXcXo.o.8.r.i.a.h.j.l.l.l.l.g.a.s.i.r.6.5.cXcXcXcXcXcXcXcXcXcXcXcXcXcXcXcXcXcXcXcXcXcXcX",
"cXcXcXcXcXcXcXcXcXcXcXcXcXcXcXcXcXcXcXcXcXo.o.5.e.y.a.g.p.p.k.k.k.j.y.i.h.i.y.9.5.o.cXcXcXcXcXcXcXcXcXcXcXcXcXcXcXcXcXcXcXcXcXcX",
"cXcXcXcXcXcXcXcXcXcXcXcXcXcXcXcXcXcXcXcXcXo.5.8.p.s.g.g.s.y.y.y.r.y.p.a.g.h.i.r.6.o.cXcXcXcXcXcXcXcXcXcXcXcXcXcXcXcXcXcXcXcXcXcX",
"cXcXcXcXcXcXcXcXcXcXcXcXcXcXcXcXcXcXcXcX&.r $.e.p.a.j.k.g.i.y.y.y.p.a.j.k.j.s.y.q.e #.cXcXcXcXcXcXcXcXcXcXcXcXcXcXcXcXcXcXcXcXcX",
"cXcXcXcXcXcXcXcXcXcXcXcXcXcXcXcXcXcXcXcX5.r t -.=.:.2.2.2.:.=.*.*.*.:.2.2.:.*.-.$.w #.o.cXcXcXcXcXcXcXcXcXcXcXcXcXcXcXcXcXcXcXcX",
"cXcXcXcXcXcXcXcXcXcXcXcXcXcXcXcXcXcXcX5.8.e.$.; ; ; ; ; ; ; ; ; ; ; ; ; ; ; ; ; 3 q.e.6.o.cXcXcXcXcXcXcXcXcXcXcXcXcXcXcXcXcXcXcX",
"cXcXcXcXcXcXcXcXcXcXcXcXcXcXcXcXcXcXcX5.e.y.u.*.*.*.*.*.*.*.*.*.*.*.*.*.*.*.*.*.q.y.t.9.o.cXcXcXcXcXcXcXcXcXcXcXcXcXcXcXcXcXcXcX",
"cXcXcXcXcXcXcXcXcXcXcXcXcXcXcXcXcXcXcX&.$.q.i.a.a.a.a.a.a.a.a.a.a.a.a.a.a.a.a.a.a.i.-.$.o.cXcXcXcXcXcXcXcXcXcXcXcXcXcXcXcXcXcXcX",
"cXcXcXcXcXcXcXcXcXcXcXcXcXcXcXcXcXcX&.r ; >.w.f.f.f.f.f.f.f.f.f.f.f.f.f.f.f.f.f.w.d.w 3 O.cXcXcXcXcXcXcXcXcXcXcXcXcXcXcXcXcXcXcX",
"cXcXcXcXcXcXcXcXcXcXcXcXcXcXcXcXcXo.r - - : 2 1 1 1 1 1 1 1 1 1 1 1 1 1 1 1 1 1 1 2 = - - #.cXcXcXcXcXcXcXcXcXcXcXcXcXcXcXcXcXcX",
"cXcXcXcXcXcXcXcXcXcXcXcXcXcXcXcXo.5.&.r r 3 = = = = = = = = = = = = = = = = = = = = e #.#.&.5.cXcXcXcXcXcXcXcXcXcXcXcXcXcXcXcXcX",
"cXcXcXcXcXcXcXcXcXcXcXcXcXcXcXcXo.6.6.6.6.r , , , , , , , , , , , , , , , , , , , , #.8.6.6.5.o.cXcXcXcXcXcXcXcXcXcXcXcXcXcXcXcX",
"cXcXcXcXcXcXcXcXcXcXcXcXcXcXcXcXo.o.o.o.o.o.o.o.o.o.o.o.o.o.o.o.o.o.o.o.o.o.o.o.o.o.o.o.o.o.o.o.cXcXcXcXcXcXcXcXcXcXcXcXcXcXcXcX",
"cXcXcXcXcXcXcXcXcXcXcXcXcXcXcXcXcXcXcXcXcXcXcXcXcXcXcXcXcXcXcXcXcXcXcXcXcXcXcXcXcXcXcXcXcXcXcXcXcXcXcXcXcXcXcXcXcXcXcXcXcXcXcXcX",
"cXcXcXcXcXcXcXcXcXcXcXcXcXcXcXcXcXcXcXcXcXcXcXcXcXcXcXcXcXcXcXcXcXcXcXcXcXcXcXcXcXcXcXcXcXcXcXcXcXcXcXcXcXcXcXcXcXcXcXcXcXcXcXcX"
};
