/* XPM */
static char *result[] = {
/* columns rows colors chars-per-pixel */
"64 64 116 2 ",
"   c #1B1C16",
".  c #1E1E1A",
"X  c #201F1B",
"o  c #19230F",
"O  c #1C2D0E",
"+  c #1E320D",
"@  c #1C3E0B",
"#  c #1D2315",
"$  c #1E2B12",
"%  c #21360E",
"&  c #233B0E",
"*  c #202616",
"=  c #212C15",
"-  c #20211B",
";  c #242B19",
":  c #253315",
">  c #283717",
",  c #263C11",
"<  c #293C15",
"1  c #263218",
"2  c #2A341C",
"3  c #2C3B1C",
"4  c #313E1D",
"5  c #1F400C",
"6  c #23420E",
"7  c #29450F",
"8  c #2D4B0F",
"9  c #254311",
"0  c #2B4314",
"q  c #2E4A13",
"w  c #2E4C18",
"e  c #314D15",
"r  c #34451E",
"t  c #354B1D",
"y  c #384A1F",
"u  c #355416",
"i  c #375916",
"p  c #3A5C16",
"a  c #35521A",
"s  c #39561C",
"d  c #375818",
"f  c #3B5B1B",
"g  c #3C6414",
"h  c #3F6A12",
"j  c #3E611C",
"k  c #374922",
"l  c #3A4E24",
"z  c #3B5521",
"x  c #3E5C21",
"c  c #416D15",
"v  c #41651D",
"b  c #446A1E",
"n  c #496E1E",
"m  c #467416",
"M  c #487716",
"N  c #497B16",
"B  c #4B721F",
"V  c #507B1F",
"C  c #415E23",
"Z  c #446425",
"A  c #486522",
"S  c #466B21",
"D  c #496E25",
"F  c #47632A",
"G  c #4C7323",
"H  c #4F7926",
"J  c #4D7628",
"K  c #517B24",
"L  c #527D29",
"P  c #4D8216",
"I  c #538D17",
"U  c #51851A",
"Y  c #538B18",
"T  c #569018",
"R  c #589618",
"E  c #5C9C19",
"W  c #5FA119",
"Q  c #63A51C",
"!  c #65AA1A",
"~  c #69AF1D",
"^  c #67B01B",
"/  c #6AB41B",
"(  c #6EBB1C",
")  c #70BE1C",
"_  c #558124",
"`  c #598526",
"'  c #5D8A26",
"]  c #56832B",
"[  c #59862C",
"{  c #5C8B2E",
"}  c #5D8733",
"|  c #5E8E30",
" . c #639627",
".. c #679D27",
"X. c #639429",
"o. c #67992B",
"O. c #6A9D2B",
"+. c #608B35",
"@. c #629433",
"#. c #669934",
"$. c #689C35",
"%. c #6A9E38",
"&. c #65A122",
"*. c #6CA12C",
"=. c #6EA436",
"-. c #6EA439",
";. c #70A737",
":. c #70A63B",
">. c #73AB3B",
",. c #77B13E",
"<. c #78B33F",
"1. c #7AB540",
"2. c #7EBB42",
"3. c #80BF43",
"4. c #83C345",
"5. c None",
/* pixels */
"5.5.5.5.5.5.5.5.5.5.5.5.5.5.5.5.5.5.5.5.5.5.5.5.5.5.5.5.5.5.5.5.5.5.5.5.5.5.5.5.5.5.5.5.5.5.5.5.5.5.5.5.5.5.5.5.5.5.5.5.5.5.5.5.",
"5.5.5.5.5.5.5.5.5.5.5.5.5.5.5.5.5.5.5.5.5.5.5.5.5.5.5.5.5.5.5.5.5.5.5.5.5.5.5.5.5.5.5.5.5.5.5.5.5.5.5.5.5.5.5.5.5.5.5.5.5.5.5.5.",
"5.5.5.5.5.5.5.5.5.5.5.5.5.5.5.5.5.5.5.5.5.5.5.5.5.5.5.5.5.5.5.5.5.5.5.5.5.5.5.5.5.5.5.5.5.5.5.5.5.5.5.5.5.5.5.5.5.5.5.5.5.5.5.5.",
"5.5.5.5.5.5.5.5.5.5.5.5.5.5.5.5.5.5.5.5.5.5.5.5.5.5.5.5.5.5.5.5.5.= = 5.5.5.5.5.5.5.5.5.5.5.5.5.5.5.5.5.5.5.5.5.5.5.5.5.5.5.5.5.",
"5.5.5.5.5.5.5.5.5.5.5.5.5.5.5.5.5.5.5.5.5.5.5.5.5.5.5.5.5.5.5.5.  0 e 5.# 5.5.5.5.5.5.5.5.5.5.5.5.5.5.5.5.5.5.5.5.5.5.5.5.5.5.5.",
"5.5.5.5.5.5.5.5.5.5.5.5.5.5.5.5.5.5.5.5.5.5.5.5.  5.5.5.5.F > ; < q 0 # :   < : 5.5.5.5.5.5.5.5.5.5.5.5.5.5.5.5.5.5.5.5.5.5.5.5.",
"5.5.5.5.5.5.5.5.5.5.5.5.5.5.5.5.5.5.5.5.5.5.* * < : # # z 1.A S f D A 3 e 0 e q 5.5.5.5.5.5.5.5.5.5.5.5.5.5.5.5.5.5.5.5.5.5.5.5.",
"5.5.5.5.5.5.5.5.5.5.5.5.5.5.5.5.5.5.5.5.5.# 0 e u d A F -.1.C | [ >.-.f u u u * 5.5.. 5.5.5.5.5.5.5.5.5.5.5.5.5.5.5.5.5.5.5.5.5.",
"5.5.5.5.5.5.5.5.5.5.5.5.5.5.  5.5.  #   # : + , u S 3.3.4.3.3.3.4.4.@.j v H j Z # , < * $ 5.5.5.2 5.5.5.5.5.5.5.5.5.5.5.5.5.5.5.",
"5.5.5.5.5.5.5.5.5.5.5.5.5.# < < X # % 0 t @.J b p j +.4.4.4.3.4.4.4.4.] { 2.>.<.Z u u f J 3 k } }   5.5.5.5.5.5.5.5.5.5.5.5.5.5.",
"5.5.5.5.5.5.5.5.5.5.5.5.  < u , $ + 0 >.,.4.4.3.>.>.1.3.4.4.4.4.4.4.>.v >.4.4.4.3.L u K 2.-.1.-.L k 3 # * q # 5.5.5.5.5.5.5.5.5.",
"5.5.5.5.5.5.5.5.5.5.* < < e e % + % < ,.4.4.4.4.4.3.4.4.4.4.3.3.4.4.1.@.4.4.4.4.4.2.#.] 1.4.4.1.D [ f j s e : 5.5.5.5.5.5.5.5.5.",
"5.5.5.5.5.5.5.5.5.  < i u q , + + + , ;.4.4.4.3.4.1.<.3.4.4.>.L 2.4.4.4.4.4.4.4.4.4.4.4.3.4.4.4.4.2.#.<.[ : # : 5.5.5.5.5.5.5.5.",
"5.5.5.5.5.5.5.5.5.= u u u , + + + + % K <.1.;.;.3.L f L 1.1.G u X.<.2.<.@.<.4.4.4.2.4.4.4.4.4.4.4.4.4.=.Z q 0 = # = 5.5.5.5.5.5.",
"5.5.5.5.5.5.5.5.; e q & , % + + + + & ' X.B X.*.;.L j j K X.V V o.X.] S V K [ >.=.G [ 2.4.4.4.4.4.4.4.1.v u d e e q # 5.5.5.5.5.",
"5.5.5.5.5.5.5.5.0 u % + + % + + + + q ' *.o.*.*.*.O.o.O.X.*.*.*.*.*.o.X.*...' O.X.f u #.4.4.>.2.4.4.2.@.f u u u e < 5.5.5.5.5.5.",
"5.5.5.5.5.5.5.5.: & + + + + + + O < X.*.*.*.*.*.*.*.*.*.*.*.*.*.*.*.*.*.*.*.*.*.*.` j ` =.#.n { 4.4.<.{ #.S u u q $ 5.5.5.5.5.5.",
"5.5.5.5.5.5.5.: e 7 + + + + + , p B O.*.*.*.*.*.*.*.*.*.*.*.*.*.*.*.*.*.*.*.*.*.*.*...*...o.` =.4.4.4.4.4.{ f u e 5.5.5.5.5.5.5.",
"5.5.5.5.5.5.5.< u & + + + + + u *.*.*.*.*.*.*.*.*.*.*.*.*.*.*.*.*.*.*.*.*.*.*.*.*.*.*.*.*.*.X.D | 2.4.4.4.2.L 9 = =   5.5.5.5.5.",
"5.5.5.5.5.5.* < & + + + + + + u O.*.*.*.*.*.*.*.*.*.*.*.*.O.*.*.*.*.*.*.*.*.*.*.*.*.*.*.*.*.*.B u | 4.4.4.2.S u u q # 5.5.5.5.5.",
"5.5.5.5.  < e u & + % % O % + v *.*.*.*.*.O.*.*.*.*.*.*.*.*.*.*.*.*.*.*.*.*.*.*.*.*.*.*.*.*.*.o.v G 3.4.4.2.S u u u < 5.5.5.5.5.",
"5.5.5.5.* u e 9 % + O + + O % & V *.*.*.*.O.G G X.*.*.*.*.*.*.*.O...*.*.*.*.*.*.*.*.*.*.*.*.*.*.o.o.3.4.4.>.d u u i e # 5.5.5.5.",
"5.5.5.5.; e % + + O + + + % + O 0 O.*.*.O.O.r X y O.*.*.*.*.*.*.' s G K K O.*.*.*.*.*.*.*.*.*.*.*.o.1.3.4.1.j D v u < 5.5.5.5.5.",
"5.5.5.5.# , + % + + + + + + % O % B X.O.*.*.A X 1 B O.*.*.*.*.*.' u u u u n K X.*.*.*.....*.*.*.` j j $.4.4.{ 2.| u < 5.5.5.5.5.",
"5.5.5.5.5.$ + + + @ @ O + % O % + : , n *.*.` y - t  .*.*.*.*.O.B u u u u u u K *...O.&.&.&.*.*._ u u #.4.4.2.4.>.D $ 5.5.5.5.5.",
"5.5.5.5.# w q & @ @ @ @ 9 , % O % + + , B o.*.O.4 1 ' *.*.*.' f i u 0 1 ; 0 u v B n  .^ ( &.*.*.B u j <.4.4.4.4.4.%.@.k 5.5.5.5.",
"5.5.5.5.$ a i 8 @ @ @ 0 & @ + + + + % O * 4 ` *.z X y X.*.*. .p u 0 - X   8 u u u d ' &.( &.K b i u { 4.4.4.4.4.2.$.=.f : 5.5.5.",
"5.3 s 5., u e e 6 @ 6 q + + + + + : 8 8 5.X 2 b 4 X X 2 4 y C y = - X X : u u u d d Y ~ ( ( ! N u u v ;.4.4.4.4.2.S j d > 5.5.5.",
"5.1 s 0 , 9 @ 5 5 @ @ 9 q & + + + % e : X X X X X X X X X X X X - - = < u u i u u h / ( ( ( ( E u u u f ] 3.4.4.4.#.D s e $ 5.5.",
"5.# 3 0 5 5 5 @ @ @ 5 0 u u w , , 7 > X X X X * X X - - X X X ; q e e i i u u u u g ! ( ( ( ( E u u i v | 4.4.4.4.=.f d d < 0 # ",
"5.5.2 z 9 5 5 @ @ 5 @ a x u u u u > X X X X X X X - X X - X - 0 i u u u u u u u u d W ( ( ( ( ( N u d =.4.4.4.4.4.3.:.j q e 0 . ",
"5.$ 9 e 9 5 5 @ 5 5 q f Z x u u u = X X X X X X - X - - X X ; u u u u i u u u i N E ( ( ( ( ( ( T u u { 4.4.2.2.<.L ] d > 5.5.5.",
"5.5.$ : 5 @ @ 5 5 9 x Z Z x a u u > X X - - - - X X X - ; 1 : u i u u u i u u u M ( ) ( ( ( ( W g u u { 4.4.[ G G u d u q : # 5.",
"# 0 9 @ 5 @ 5 @ 5 5 9 x Z Z f a 0 = ; ; - - - - k 2 2 z Z Z z a u u u u u u u m E / ( ( ( ( ) / P u u v >.4.@.u u u u u e   5.5.",
"# 3 : @ 5 5 5 @ 5 5 5 9 Z Z Z z 3 w a 0 - - X 3 Z x C Z Z Z x > 1 i u u u u p ~ ) ( ( ( ( ( ( ( Y u u u @.4.<.j u u u u u 0 5.5.",
"5.5.$ 9 @ 5 @ 5 5 5 5 a Z Z Z Z d u u a 0 2 3 x Z Z Z Z Z Z x 5.* e u i u u i E ( ( ( ( ( ( ( / m u u j 1.4.2.v u e u e 0 q # 5.",
"5.5.5.3 w 5 @ @ 5 @ O a Z Z Z Z s s s u f C Z Z Z Z Z Z Z Z Z 5.5.= > < v I m m / ( ( ( ( ( ( ( ! P u p >.>.K f 0 * q : 5.5.5.5.",
"5.5.5.1 9 % 5 5 5 @ O z Z Z Z Z Z Z Z s C Z Z Z Z Z Z Z Z Z Z C 5.5.X = M ( / ! ( ( ( ( ( ( ( ( ( W i u v f 0 u e # 5.5.5.5.5.5.",
"5.5.5.5.5.# 5 5 5 5 5 5 a Z Z Z Z Z Z Z Z Z Z Z Z Z Z Z Z Z Z Z C 5.X u W ( ( ) ( ( ( ( ( ( ( ( ) E q u u u e u e * 5.5.5.5.5.5.",
"5.5.5.5.5.* 9 5 5 5 5 5 9 Z Z Z Z Z Z Z F Z Z Z Z Z Z Z Z Z Z Z Z t   P ) ( ( ( ( ( ( ( ( ( ( ( ^ h & u u u u u u = 5.5.5.5.5.5.",
"5.5.5.5.5.: 0 5 5 @ @ + O a Z Z Z Z Z Z Z Z Z Z Z Z Z Z Z Z F Z z 5.5.M ( ( ( ( ( ( ( ( ( ( ( ) P + O 7 u u u u u < 5.5.5.5.5.5.",
"5.5.5.5.5.< 6 @ @ @ @ 5.0 w Z Z Z Z Z Z Z Z Z Z Z Z Z z t f e z z 5.e g ~ ( ( ( ( ( ( ( ( ( ( ( P O % % u i u i u e = 5.5.5.5.5.",
"5.5.5.5.5.w 6 5 @ @ @ @ w C Z Z Z Z Z Z Z Z Z Z Z Z C w w u w < 5.5.u u I ) ( ( ( ) ( ( ( ( ( / c % & % e u u u u u e e : 5.5.5.",
"5.5.5.5.  : q 5 @ @ @ @ 5 a Z Z C u x Z Z Z Z Z Z Z C u d u u q q q u c ! ( ( ( ! E ( ( ( ( ) R % % 0 0 u u u u u u e 2 # 5.5.5.",
"5.5.5.5.5.# q & @ @ @ @ 5 w Z Z a u d Z Z Z Z Z Z Z Z x u u u u u u u m ( ( ( ( N 7 N ! ) ) ( ! 7 + % 8 i u u u d 0 # 5.5.5.5.5.",
"5.5.5.5.5.  * # @ @ @ @ 5 w w 5 9 u a C F Z Z Z Z Z x u u u u u u u u d P ! ^ ( ( c + 8 Q ( ( ) N + % & 9 7 e u u = 5.5.5.5.5.5.",
"5.5.5.5.5.5.5.q @ 5 5 5 5 5 @ 5 @ q u a s Z Z Z Z C u u u i u u u u d u u q 8 g g 7 + + P ) ) ( g + + + O + & u e < 5.5.5.5.5.5.",
"5.5.5.5.5.5.# , 5 @ 5 5 5 5 @ 5 5 6 u 9 5 w s C Z s u u u u a d u u u u u 0 + + + + + + 8 I I ! u O + + + + + * * * 5.5.5.5.5.5.",
"5.5.5.5.5.5.< @ @ & @ @ 5 5 @ 5 @ @ 5 @ 5 + O 5 a a w < $ < a d u u 8 5 & @ + + % + + + + + % 8 6 + + + % + + O 5.5.5.5.5.5.5.5.",
"5.5.5.5.5.5.0 , 9 q 6 5 @ @ @ @ @ 5 @ @ 5 5 @ o @ @ O O @ w w 8 u i 6 O + + + + O + + + + + + + % + + % O O #   5.5.5.5.5.5.5.5.",
"5.5.5.5.5.5.# # * & , 6 @ @ 5 @ 6 5 @ @ 5 @ 5 @ @ @ 5 @ o O 5 @ 6 0 @ + @ + + O + + + + + + + + % O % 8 0 *   5.5.5.5.5.5.5.5.5.",
"5.5.5.5.5.5.5.5.= $ $ @ @ @ @ @ 0 9 5 @ 5 @ @ 5 5 5 5 @ O @ @ @ @ + O @ @ @ + @ O % % + + + + + % 7 e u u e 5.5.5.5.5.5.5.5.5.5.",
"5.5.5.5.5.5.5.5.5.5.q @ 9 q q + # 3 9 @ @ 5 5 6 5 5 @ @ @ @ 5 @ 5 @ @ @ @ 5 @ @ + + + + + + + O , i i u u 0 - 5.5.5.5.5.5.5.5.5.",
"5.5.5.5.5.5.5.5.5.* < * # $ < 5.5.= 0 9 5 @ @ & @ 5 @ @ @ @ @ 5 @ 5 @ 5 @ 5 5 @ @ & O * # $ $ # < i u u u ; 5.5.5.5.5.5.5.5.5.5.",
"5.5.5.5.5.5.5.5.5.  5.5.5.5.  5.5.5.# 0 q 8 6 $ @ @ @ @ @ 5 @ @ 5 5 5 5 @ 5 5 5 5 e = 5.5.  . 5.5.e u u 0   5.5.5.5.5.5.5.5.5.5.",
"5.5.5.5.5.5.5.5.5.5.5.5.5.5.5.5.5.5.5.= = : < o @ @ @ @ @ @ 5 @ 5 5 u 8 6 5 @ 6 6 q 5.5.5.5.5.5.5.* 0 i e 5.5.5.5.5.5.5.5.5.5.5.",
"5.5.5.5.5.5.5.5.5.5.5.5.5.5.5.5.5.5.5.5.5..   5.+ 5 q 6 7 @ @ @ 5 6 u q 1 9 0 u e q 5.5.5.5.5.5.5.5.# 2 : 5.5.5.5.5.5.5.5.5.5.5.",
"5.5.5.5.5.5.5.5.5.5.5.5.5.5.5.5.5.5.5.5.5.5.5.5.9 0 , & & @ 6 q u u 3 #   . : : * * 5.5.5.5.5.5.5.5.5.5.  5.5.5.5.5.5.5.5.5.5.5.",
"5.5.5.5.5.5.5.5.5.5.5.5.5.5.5.5.5.5.5.5.5.5.5.5.= >   = = 6 9 r : = # 5.5.5.5.  5.5.5.5.5.5.5.5.5.5.5.5.5.5.5.5.5.5.5.5.5.5.5.5.",
"5.5.5.5.5.5.5.5.5.5.5.5.5.5.5.5.5.5.5.5.5.5.5.5.    5.# 5.q 0 .     5.5.5.5.5.5.5.5.5.5.5.5.5.5.5.5.5.5.5.5.5.5.5.5.5.5.5.5.5.5.",
"5.5.5.5.5.5.5.5.5.5.5.5.5.5.5.5.5.5.5.5.5.5.5.5.5.5.5.5.5.* * 5.5.5.5.5.5.5.5.5.5.5.5.5.5.5.5.5.5.5.5.5.5.5.5.5.5.5.5.5.5.5.5.5.",
"5.5.5.5.5.5.5.5.5.5.5.5.5.5.5.5.5.5.5.5.5.5.5.5.5.5.5.5.5.5.5.5.5.5.5.5.5.5.5.5.5.5.5.5.5.5.5.5.5.5.5.5.5.5.5.5.5.5.5.5.5.5.5.5.",
"5.5.5.5.5.5.5.5.5.5.5.5.5.5.5.5.5.5.5.5.5.5.5.5.5.5.5.5.5.5.5.5.5.5.5.5.5.5.5.5.5.5.5.5.5.5.5.5.5.5.5.5.5.5.5.5.5.5.5.5.5.5.5.5.",
"5.5.5.5.5.5.5.5.5.5.5.5.5.5.5.5.5.5.5.5.5.5.5.5.5.5.5.5.5.5.5.5.5.5.5.5.5.5.5.5.5.5.5.5.5.5.5.5.5.5.5.5.5.5.5.5.5.5.5.5.5.5.5.5."
};
